<?xml version="1.0" encoding="UTF-8"?>
<svg version="1.1" xmlns="http://www.w3.org/2000/svg" width="267" height="301">
<path d="M0 0 C0.72888428 0.00054382 1.45776855 0.00108765 2.20874023 0.00164795 C13.87552253 0.04162021 24.80995922 0.9104115 36 4.375 C36.71994141 4.58930664 37.43988281 4.80361328 38.18164062 5.02441406 C53.1908492 9.58291375 66.72543791 16.55194545 79 26.375 C79.55574707 26.81859863 80.11149414 27.26219727 80.68408203 27.71923828 C88.78031236 34.24175417 95.81325397 40.95544337 102 49.375 C102.74765625 50.37015625 103.4953125 51.3653125 104.265625 52.390625 C124.4963048 80.32823044 132.08988671 115.19754139 126.875 149.25 C123.79633852 167.21422658 116.81285046 184.85799486 106.12890625 199.67578125 C104.81586605 201.49143518 104.81586605 201.49143518 104 204.375 C105.31230591 204.7781543 105.31230591 204.7781543 106.65112305 205.18945312 C112.05341336 207.10193557 116.84639354 210.04336725 121.8125 212.875 C122.87404297 213.46925781 123.93558594 214.06351563 125.02929688 214.67578125 C126.54040039 215.53236328 126.54040039 215.53236328 128.08203125 216.40625 C129.00218018 216.92767578 129.9223291 217.44910156 130.87036133 217.98632812 C133 219.375 133 219.375 134 221.375 C129.1876124 228.11963413 124.1626552 234.51628007 118.5625 240.625 C117.78277832 241.48387817 117.78277832 241.48387817 116.98730469 242.36010742 C115.70193573 243.74046168 114.35573032 245.06368519 113 246.375 C112.34 246.375 111.68 246.375 111 246.375 C113.97 250.335 113.97 250.335 117 254.375 C107.54939791 273.27620417 75.89663029 285.7499297 57.00561523 292.28344727 C13.23285237 306.64426421 -35.85368056 304.18104236 -77.21118164 283.41601562 C-107.9493288 267.4510068 -107.9493288 267.4510068 -116 255.375 C-113.69 252.735 -111.38 250.095 -109 247.375 C-110.32 246.715 -111.64 246.055 -113 245.375 C-119.15792728 240.23590254 -124.02395939 233.61114702 -129 227.375 C-130.12341797 225.97121094 -130.12341797 225.97121094 -131.26953125 224.5390625 C-131.84058594 223.82492188 -132.41164062 223.11078125 -133 222.375 C-131.95433246 219.29116692 -131.01741884 218.38583015 -128.20263672 216.63574219 C-126.45877686 215.78737793 -126.45877686 215.78737793 -124.6796875 214.921875 C-124.06102814 214.61679016 -123.44236877 214.31170532 -122.80496216 213.99737549 C-120.83366701 213.02847968 -118.85467873 212.07662998 -116.875 211.125 C-115.53461393 210.46985839 -114.19476307 209.81362057 -112.85546875 209.15625 C-109.5764203 207.5497478 -106.29026424 205.9584278 -103 204.375 C-105.26783666 200.24293453 -107.54135376 196.12861873 -109.9921875 192.1015625 C-126.65305781 164.65606245 -131.88423748 129.80707869 -124.54345703 98.50488281 C-115.99385546 64.99781897 -95.84523951 36.14380095 -66.29589844 17.94555664 C-53.96996459 10.65285897 -41.02217831 5.34717211 -27 2.375 C-25.84927002 2.11227295 -25.84927002 2.11227295 -24.67529297 1.84423828 C-16.48265795 0.13049619 -8.33496621 -0.0234022 0 0 Z " fill="#E8E8E8" transform="translate(133,-0.375)"/>
<path d="M0 0 C1.12664062 0.32871094 2.25328125 0.65742187 3.4140625 0.99609375 C24.2724679 7.67910834 40.88240578 22.4271959 51.00390625 41.73828125 C56.92494813 53.64965219 59.50973773 64.72134015 59.3125 78.0625 C59.31572266 79.15626953 59.31894531 80.25003906 59.32226562 81.37695312 C59.25613385 91.48309067 58.07398001 100.77901855 53.8125 110 C53.50425293 110.68078613 53.19600586 111.36157227 52.87841797 112.06298828 C48.1013865 122.35777039 41.95427104 130.90666828 34 139 C33.38640625 139.62648437 32.7728125 140.25296875 32.140625 140.8984375 C15.35228098 156.75409574 -6.71519337 161.70175531 -29.07421875 161.3046875 C-49.8866715 160.50913963 -69.72657523 149.16279589 -83.94140625 134.33984375 C-100.17010417 115.89394232 -105.31602956 95.01170622 -104.23535156 71.03076172 C-102.55278357 49.36333536 -92.6425094 31.55388811 -76.69921875 16.8828125 C-66.79315713 8.54939896 -55.54097554 2.28207349 -43 -1 C-42.16726562 -1.22429688 -41.33453125 -1.44859375 -40.4765625 -1.6796875 C-27.29509747 -4.64044734 -12.83966797 -3.99420402 0 0 Z " fill="#ECECEC" transform="translate(156,48)"/>
<path d="M0 0 C0.72888428 0.00054382 1.45776855 0.00108765 2.20874023 0.00164795 C13.87552253 0.04162021 24.80995922 0.9104115 36 4.375 C36.71994141 4.58930664 37.43988281 4.80361328 38.18164062 5.02441406 C53.1908492 9.58291375 66.72543791 16.55194545 79 26.375 C79.55574707 26.81859863 80.11149414 27.26219727 80.68408203 27.71923828 C88.78031236 34.24175417 95.81325397 40.95544337 102 49.375 C102.74765625 50.37015625 103.4953125 51.3653125 104.265625 52.390625 C124.4963048 80.32823044 132.08988671 115.19754139 126.875 149.25 C123.79633852 167.21422658 116.81285046 184.85799486 106.12890625 199.67578125 C104.81586605 201.49143518 104.81586605 201.49143518 104 204.375 C105.31230591 204.7781543 105.31230591 204.7781543 106.65112305 205.18945312 C112.05341336 207.10193557 116.84639354 210.04336725 121.8125 212.875 C122.87404297 213.46925781 123.93558594 214.06351563 125.02929688 214.67578125 C126.54040039 215.53236328 126.54040039 215.53236328 128.08203125 216.40625 C129.00218018 216.92767578 129.9223291 217.44910156 130.87036133 217.98632812 C133 219.375 133 219.375 134 221.375 C129.1876124 228.11963413 124.1626552 234.51628007 118.5625 240.625 C117.78277832 241.48387817 117.78277832 241.48387817 116.98730469 242.36010742 C115.70193573 243.74046168 114.35573032 245.06368519 113 246.375 C112.34 246.375 111.68 246.375 111 246.375 C113.97 250.335 113.97 250.335 117 254.375 C107.54939791 273.27620417 75.89663029 285.7499297 57.00561523 292.28344727 C13.23285237 306.64426421 -35.85368056 304.18104236 -77.21118164 283.41601562 C-107.9493288 267.4510068 -107.9493288 267.4510068 -116 255.375 C-113.69 252.735 -111.38 250.095 -109 247.375 C-110.32 246.715 -111.64 246.055 -113 245.375 C-119.15792728 240.23590254 -124.02395939 233.61114702 -129 227.375 C-130.12341797 225.97121094 -130.12341797 225.97121094 -131.26953125 224.5390625 C-131.84058594 223.82492188 -132.41164062 223.11078125 -133 222.375 C-131.95433246 219.29116692 -131.01741884 218.38583015 -128.20263672 216.63574219 C-126.45877686 215.78737793 -126.45877686 215.78737793 -124.6796875 214.921875 C-124.06102814 214.61679016 -123.44236877 214.31170532 -122.80496216 213.99737549 C-120.83366701 213.02847968 -118.85467873 212.07662998 -116.875 211.125 C-115.53461393 210.46985839 -114.19476307 209.81362057 -112.85546875 209.15625 C-109.5764203 207.5497478 -106.29026424 205.9584278 -103 204.375 C-105.26783666 200.24293453 -107.54135376 196.12861873 -109.9921875 192.1015625 C-126.65305781 164.65606245 -131.88423748 129.80707869 -124.54345703 98.50488281 C-115.99385546 64.99781897 -95.84523951 36.14380095 -66.29589844 17.94555664 C-53.96996459 10.65285897 -41.02217831 5.34717211 -27 2.375 C-25.84927002 2.11227295 -25.84927002 2.11227295 -24.67529297 1.84423828 C-16.48265795 0.13049619 -8.33496621 -0.0234022 0 0 Z M-92.33007812 45.93286133 C-116.0084777 73.26948847 -123.8820395 105.9034272 -122 141.375 C-121.3006239 148.19476986 -119.85106 154.78202703 -118 161.375 C-117.79632813 162.10332031 -117.59265625 162.83164063 -117.3828125 163.58203125 C-112.62001508 179.89902241 -104.38387645 194.75988869 -93 207.375 C-92.29359375 208.21160156 -91.5871875 209.04820312 -90.859375 209.91015625 C-70.23566136 233.90933381 -40.35276407 247.95653282 -9 250.375 C23.01553211 252.00067862 54.16888216 243.17400127 79 222.375 C79.51481934 221.94912598 80.02963867 221.52325195 80.56005859 221.08447266 C94.90916531 209.07096302 105.54881452 194.49467876 113 177.375 C113.28456055 176.73820313 113.56912109 176.10140625 113.86230469 175.4453125 C126.49178444 146.95994965 126.97430061 112.33470046 115.78173828 83.29003906 C109.4563046 67.79450446 100.59344978 54.46136856 89 42.375 C88.24203125 41.55386719 87.4840625 40.73273437 86.703125 39.88671875 C75.8411124 28.47450616 63.23918034 20.85820222 49 14.375 C48.11828125 13.96507812 47.2365625 13.55515625 46.328125 13.1328125 C32.36052503 7.08643533 16.04229496 3.97266024 0.875 4.0625 C-0.12345947 4.06741455 -1.12191895 4.0723291 -2.15063477 4.07739258 C-36.27544572 4.61029385 -69.45505071 20.72782148 -92.33007812 45.93286133 Z " fill="#040404" transform="translate(133,-0.375)"/>
<path d="M0 0 C1.12664062 0.32871094 2.25328125 0.65742187 3.4140625 0.99609375 C24.2724679 7.67910834 40.88240578 22.4271959 51.00390625 41.73828125 C56.92494813 53.64965219 59.50973773 64.72134015 59.3125 78.0625 C59.31572266 79.15626953 59.31894531 80.25003906 59.32226562 81.37695312 C59.25613385 91.48309067 58.07398001 100.77901855 53.8125 110 C53.50425293 110.68078613 53.19600586 111.36157227 52.87841797 112.06298828 C48.1013865 122.35777039 41.95427104 130.90666828 34 139 C33.38640625 139.62648437 32.7728125 140.25296875 32.140625 140.8984375 C15.35228098 156.75409574 -6.71519337 161.70175531 -29.07421875 161.3046875 C-49.8866715 160.50913963 -69.72657523 149.16279589 -83.94140625 134.33984375 C-100.17010417 115.89394232 -105.31602956 95.01170622 -104.23535156 71.03076172 C-102.55278357 49.36333536 -92.6425094 31.55388811 -76.69921875 16.8828125 C-66.79315713 8.54939896 -55.54097554 2.28207349 -43 -1 C-42.16726562 -1.22429688 -41.33453125 -1.44859375 -40.4765625 -1.6796875 C-27.29509747 -4.64044734 -12.83966797 -3.99420402 0 0 Z M-22 10 C-22.81706167 13.0404598 -23.6278202 16.08256683 -24.4375 19.125 C-24.66759766 19.9809375 -24.89769531 20.836875 -25.13476562 21.71875 C-26.30530387 26.12947383 -27.35456346 30.47452542 -28 35 C-31.51098025 30.98745115 -33.76537994 26.79016959 -36 22 C-37.32 22.33 -38.64 22.66 -40 23 C-40.33 27.62 -40.66 32.24 -41 37 C-42.8253125 34.4940625 -42.8253125 34.4940625 -44.6875 31.9375 C-45.41710937 30.93976563 -46.14671875 29.94203125 -46.8984375 28.9140625 C-48.58606757 26.57396579 -50.20583145 24.20771754 -51.8125 21.8125 C-52.534375 20.884375 -53.25625 19.95625 -54 19 C-54.99 19 -55.98 19 -57 19 C-56.54203339 25.52602418 -55.16147108 31.58317396 -53.37207031 37.85766602 C-52.57436004 40.68221905 -52 43.0465671 -52 46 C-52.67546875 45.3503125 -53.3509375 44.700625 -54.046875 44.03125 C-54.93890625 43.1959375 -55.8309375 42.360625 -56.75 41.5 C-57.63171875 40.6646875 -58.5134375 39.829375 -59.421875 38.96875 C-61.98919989 36.59539093 -61.98919989 36.59539093 -66 37 C-65.28739906 41.28379643 -63.93078264 45.25093853 -62.4375 49.3125 C-62.20353516 49.95767578 -61.96957031 50.60285156 -61.72851562 51.26757812 C-61.15552993 52.84621219 -60.57820536 54.42327026 -60 56 C-60.52956299 55.75765625 -61.05912598 55.5153125 -61.60473633 55.265625 C-64.00471692 54.171257 -66.40851907 53.0855505 -68.8125 52 C-70.06256836 51.42765625 -70.06256836 51.42765625 -71.33789062 50.84375 C-72.14033203 50.4828125 -72.94277344 50.121875 -73.76953125 49.75 C-74.50792236 49.41484375 -75.24631348 49.0796875 -76.00708008 48.734375 C-78.11517409 47.82711802 -78.11517409 47.82711802 -81 48 C-80.58685438 52.44926052 -77.49538473 54.84100104 -74.4375 57.75 C-73.91736328 58.25660156 -73.39722656 58.76320312 -72.86132812 59.28515625 C-71.58089916 60.53034405 -70.29132446 61.76611502 -69 63 C-73.95 63.33 -78.9 63.66 -84 64 C-84 65.32 -84 66.64 -84 68 C-82.02754217 69.80035402 -82.02754217 69.80035402 -79.5 71.25 C-78.015 72.1575 -76.53 73.065 -75 74 C-83.415 74.99 -83.415 74.99 -92 76 C-92 77.32 -92 78.64 -92 80 C-88.3366907 81.99913541 -84.67048184 83.99281298 -81.00146484 85.98144531 C-79.75325319 86.65898096 -78.50585192 87.33801175 -77.25927734 88.01855469 C-75.46922446 88.99546501 -73.67634352 89.96699348 -71.8828125 90.9375 C-70.80402832 91.52402344 -69.72524414 92.11054688 -68.61376953 92.71484375 C-66.18630801 94.14707852 -66.18630801 94.14707852 -64 94 C-64 110.17 -64 126.34 -64 143 C-56.13266856 142.92133966 -56.13266856 142.92133966 -48.265625 142.81982422 C-42.10440727 142.78889842 -36.88787641 143.1854174 -31 145 C-28.69 145.66 -26.38 146.32 -24 147 C-24 130.17 -24 113.34 -24 96 C-23.34 96 -22.68 96 -22 96 C-22 112.83 -22 129.66 -22 147 C-18.04 146.01 -14.08 145.02 -10 144 C-6.10828687 143.22165737 -3.15001261 142.88155073 0.73828125 142.90234375 C1.70032471 142.90484131 2.66236816 142.90733887 3.65356445 142.90991211 C4.86101318 142.91901611 6.06846191 142.92812012 7.3125 142.9375 C11.169375 142.958125 15.02625 142.97875 19 143 C19 127.82 19 112.64 19 97 C22.3 96.01 25.6 95.02 29 94 C30.7892358 93.40794966 32.5745789 92.80364879 34.3515625 92.17578125 C35.22167969 91.86962891 36.09179688 91.56347656 36.98828125 91.24804688 C38.29345703 90.78495117 38.29345703 90.78495117 39.625 90.3125 C40.53378906 89.99216797 41.44257813 89.67183594 42.37890625 89.34179688 C44.58667793 88.56326686 46.79368537 87.78264756 49 87 C49 85.68 49 84.36 49 83 C47.72382813 82.79503906 46.44765625 82.59007812 45.1328125 82.37890625 C43.46351379 82.10694185 41.79424447 81.83479709 40.125 81.5625 C39.28324219 81.42779297 38.44148437 81.29308594 37.57421875 81.15429688 C36.36572266 80.95610352 36.36572266 80.95610352 35.1328125 80.75390625 C34.38918457 80.63345947 33.64555664 80.5130127 32.87939453 80.38891602 C31 80 31 80 29 79 C33.62 76.36 38.24 73.72 43 71 C43 70.01 43 69.02 43 68 C36.07 67.505 36.07 67.505 29 67 C29.92683594 66.45730469 30.85367188 65.91460937 31.80859375 65.35546875 C33.01850467 64.63327386 34.22812513 63.9105922 35.4375 63.1875 C36.04916016 62.83107422 36.66082031 62.47464844 37.29101562 62.10742188 C41.10975354 59.89079401 41.10975354 59.89079401 43 56 C34.75 56 26.5 56 18 56 C23 49.1875 23 49.1875 24.58203125 47.05541992 C25.19111328 46.21394409 25.19111328 46.21394409 25.8125 45.35546875 C26.23144531 44.78465576 26.65039062 44.21384277 27.08203125 43.62573242 C28.24584117 41.87577861 28.24584117 41.87577861 28 39 C23.3817417 39.54792895 20.01850353 41.58964488 16.1875 44.0625 C15.59001953 44.43955078 14.99253906 44.81660156 14.37695312 45.20507812 C12.91363423 46.12989566 11.45620477 47.06402065 10 48 C10.27263672 47.40985107 10.54527344 46.81970215 10.82617188 46.21166992 C12.05664348 43.53960092 13.27840454 40.86363781 14.5 38.1875 C14.92925781 37.25873047 15.35851562 36.32996094 15.80078125 35.37304688 C16.20683594 34.48037109 16.61289063 33.58769531 17.03125 32.66796875 C17.40830078 31.84578857 17.78535156 31.0236084 18.17382812 30.17651367 C19.17743934 27.92055054 19.17743934 27.92055054 19 25 C15.02904224 25.55684695 13.05888873 27.48794241 10.1875 30.1875 C8.88232422 31.39792969 8.88232422 31.39792969 7.55078125 32.6328125 C6.70902344 33.41398437 5.86726563 34.19515625 5 35 C2.68557716 37.02358386 0.34502978 39.01182258 -2 41 C-2.33 35.39 -2.66 29.78 -3 24 C-4.32 24 -5.64 24 -7 24 C-8.64180385 26.18108249 -9.92617061 28.14329273 -11.25 30.5 C-12.4875 32.645 -13.725 34.79 -15 37 C-16.98 24.13 -16.98 24.13 -19 11 C-19.99 10.67 -20.98 10.34 -22 10 Z " fill="#030303" transform="translate(156,48)"/>
<path d="M0 0 C0.52207031 0.35191406 1.04414062 0.70382813 1.58203125 1.06640625 C3.16197792 2.12616032 4.74570133 3.18029375 6.33203125 4.23046875 C8.04568379 5.36704943 9.7521292 6.51461471 11.44921875 7.67578125 C39.10268627 26.09731015 73.80177945 33.87483308 106.5625 27.3125 C109.72809206 26.61032095 112.86507223 25.82757709 116 25 C117.04027344 24.73509766 117.04027344 24.73509766 118.1015625 24.46484375 C133.39876469 20.47812117 148.10565784 13.86892832 160.63720703 4.18676758 C163.36410154 2.08146323 165.53251148 0.46790207 169 0 C174.9292017 6.39957678 180.63530235 12.87674776 186.08984375 19.6875 C187.89810118 21.96615487 187.89810118 21.96615487 189.75390625 23.6875 C191 25 191 25 191 27 C188.8927346 28.7667902 186.78852394 30.39361942 184.5625 32 C183.55401001 32.73041504 183.55401001 32.73041504 182.52514648 33.47558594 C164.12608091 46.57689084 144.8045035 55.28030441 123 61 C121.84081055 61.31976807 121.84081055 61.31976807 120.65820312 61.64599609 C81.65112096 72.09372987 36.65526839 64.47660031 1.87792969 44.79931641 C-6.60704816 39.83907673 -14.54280647 34.41748866 -22 28 C-19.70215536 23.86998688 -16.89893184 20.36575133 -13.8125 16.8125 C-9.08470089 11.30318126 -4.49316992 5.70336468 0 0 Z " fill="#E6E6E6" transform="translate(50,229)"/>
<path d="M0 0 C2.22697147 3.34045721 2.55724635 5.43677228 3.125 9.375 C3.29257813 10.49648437 3.46015625 11.61796875 3.6328125 12.7734375 C3.94965288 15.55758804 4.07332983 18.20299084 4 21 C7.7941685 17.53104594 10.39112062 14.01393589 12.984375 9.57421875 C13.48710937 8.79498047 13.48710937 8.79498047 14 8 C14.33 8 14.66 8 15 8 C15 13.28 15 18.56 15 24 C19.73637829 22.13904002 19.73637829 22.13904002 23.33203125 19.1796875 C23.90244141 18.64472656 24.47285156 18.10976562 25.06054688 17.55859375 C25.63869141 17.00300781 26.21683594 16.44742188 26.8125 15.875 C27.40998047 15.31167969 28.00746094 14.74835938 28.62304688 14.16796875 C30.08805594 12.7850002 31.54486312 11.39335215 33 10 C33.495 10.99 33.495 10.99 34 12 C33.11921897 14.13778973 32.14488966 16.23747103 31.125 18.3125 C29.20550616 22.22737465 27.6335421 25.67079564 27 30 C27.50789063 29.74605469 28.01578125 29.49210937 28.5390625 29.23046875 C34.76953125 26.11523438 34.76953125 26.11523438 41 23 C39.46073417 26.49833143 37.31392894 29.3821403 35.0234375 32.4140625 C33.81925962 33.96549678 33.81925962 33.96549678 34 36 C40.6 36 47.2 36 54 36 C49.56956522 40.43043478 49.56956522 40.43043478 46.3125 42.0625 C42.74731527 43.65933163 42.74731527 43.65933163 42 47 C46.62 47 51.24 47 56 47 C52.82514573 50.17485427 49.91470026 51.7226756 45.9609375 53.71875 C43.68224117 54.91791634 43.68224117 54.91791634 43 58 C52.9 59.485 52.9 59.485 63 61 C62 63 62 63 60.31347656 63.76196289 C59.59643555 63.9964917 58.87939453 64.23102051 58.140625 64.47265625 C57.35429687 64.73240234 56.56796875 64.99214844 55.7578125 65.25976562 C54.93023437 65.52466797 54.10265625 65.78957031 53.25 66.0625 C52.43789062 66.33126953 51.62578125 66.60003906 50.7890625 66.87695312 C40.00420951 70.39871701 40.00420951 70.39871701 32.95703125 67.76953125 C26.49780129 66.08859558 19.64343456 66.22119357 13 66 C13.48597656 65.26007813 13.97195312 64.52015625 14.47265625 63.7578125 C16.69635893 59.7426358 16.51283008 57.54220931 16 53 C13.1017847 49.40621302 9.37169055 49.5662283 5 49 C4.81824219 47.51886719 4.81824219 47.51886719 4.6328125 46.0078125 C4.46523437 44.72648437 4.29765625 43.44515625 4.125 42.125 C3.96257812 40.84882812 3.80015625 39.57265625 3.6328125 38.2578125 C3.30122527 34.92835773 3.30122527 34.92835773 1 33 C-1.55460214 32.92727438 -1.55460214 32.92727438 -4 34 C-6.79010934 38.32466947 -6.62989664 43.98412548 -7 49 C-8.06541016 49.19916016 -8.06541016 49.19916016 -9.15234375 49.40234375 C-10.07144531 49.57894531 -10.99054688 49.75554687 -11.9375 49.9375 C-12.85402344 50.11152344 -13.77054688 50.28554687 -14.71484375 50.46484375 C-16.95289844 50.77714988 -16.95289844 50.77714988 -18 52 C-18.09894455 53.4346959 -18.12970735 54.87440397 -18.125 56.3125 C-18.12757812 57.09238281 -18.13015625 57.87226563 -18.1328125 58.67578125 C-18.00499912 60.91251539 -17.61913869 62.85266979 -17 65 C-19.5 65.3125 -22 65.625 -24.5 65.9375 C-25.19609375 66.02451172 -25.8921875 66.11152344 -26.609375 66.20117188 C-28.03208659 66.37901082 -29.45590595 66.54817442 -30.88061523 66.70922852 C-32.90004482 66.98628653 -34.89313063 67.43848947 -36.87890625 67.8984375 C-42.47305845 68.59477927 -46.79094877 65.44692012 -51.4375 62.6875 C-52.34693359 62.17509766 -53.25636719 61.66269531 -54.19335938 61.13476562 C-60.83476828 57.33046344 -60.83476828 57.33046344 -62 55 C-53.585 54.505 -53.585 54.505 -45 54 C-46.88360319 50.23279362 -47.37077565 49.43511135 -50.625 47.3125 C-51.76362417 46.56193753 -52.89287864 45.79629852 -54 45 C-54 44.67 -54 44.34 -54 44 C-49.38 43.67 -44.76 43.34 -40 43 C-41.5994614 39.80107719 -42.82812919 37.84646265 -45.125 35.25 C-45.66382812 34.63640625 -46.20265625 34.0228125 -46.7578125 33.390625 C-47.16773437 32.93171875 -47.57765625 32.4728125 -48 32 C-42.80355921 33.59890486 -37.93387858 35.74138003 -33 38 C-33.37253906 36.95199219 -33.74507812 35.90398437 -34.12890625 34.82421875 C-34.60724523 33.44547699 -35.08508383 32.06656157 -35.5625 30.6875 C-35.80935547 29.99720703 -36.05621094 29.30691406 -36.31054688 28.59570312 C-38.11328125 23.33984375 -38.11328125 23.33984375 -37 20 C-36.39671875 20.56589844 -35.7934375 21.13179687 -35.171875 21.71484375 C-33.97304687 22.81505859 -33.97304687 22.81505859 -32.75 23.9375 C-31.96109375 24.66839844 -31.1721875 25.39929688 -30.359375 26.15234375 C-28.04679721 27.96335252 -26.79102714 28.42068164 -24 29 C-24.15670166 28.40461426 -24.31340332 27.80922852 -24.47485352 27.19580078 C-25.1780617 24.50738786 -25.87040074 21.81629313 -26.5625 19.125 C-26.80935547 18.18785156 -27.05621094 17.25070313 -27.31054688 16.28515625 C-27.53935547 15.38925781 -27.76816406 14.49335937 -28.00390625 13.5703125 C-28.21861572 12.74289551 -28.4333252 11.91547852 -28.65454102 11.06298828 C-29 9 -29 9 -28 7 C-26.70161824 8.7241302 -25.41156253 10.45453232 -24.125 12.1875 C-23.40570313 13.15042969 -22.68640625 14.11335938 -21.9453125 15.10546875 C-20.19403401 17.71128675 -19.02540206 20.04792144 -18 23 C-16.68 23 -15.36 23 -14 23 C-14 17.72 -14 12.44 -14 7 C-11.84983417 9.86688777 -10.32992412 12.11050183 -8.8125 15.25 C-8.46832031 15.95640625 -8.12414062 16.6628125 -7.76953125 17.390625 C-7.51558594 17.92171875 -7.26164062 18.4528125 -7 19 C-6.34 19 -5.68 19 -5 19 C-4.35377959 16.58343624 -3.70800996 14.16675354 -3.0625 11.75 C-2.88009766 11.06808594 -2.69769531 10.38617188 -2.50976562 9.68359375 C-1.64946879 6.46139106 -0.79316866 3.23946777 0 0 Z " fill="#040404" transform="translate(134,72)"/>
<path d="M0 0 C0.99 0.66 1.98 1.32 3 2 C3.36076355 3.83499146 3.36076355 3.83499146 3.34057617 6.08251953 C3.34023628 7.34360031 3.34023628 7.34360031 3.33988953 8.63015747 C3.32440567 9.53853363 3.30892181 10.44690979 3.29296875 11.3828125 C3.28872391 12.31221649 3.28447906 13.24162048 3.28010559 14.19918823 C3.26328012 17.17475056 3.22562103 20.14964156 3.1875 23.125 C3.17245816 25.13931315 3.15876888 27.15363689 3.14648438 29.16796875 C3.11336394 34.11223879 3.06155529 39.05600549 3 44 C1.9958606 44.029729 1.9958606 44.029729 0.97143555 44.06005859 C-2.12353971 44.15655166 -5.21795099 44.26571634 -8.3125 44.375 C-9.36501953 44.4059375 -10.41753906 44.436875 -11.50195312 44.46875 C-13.07299805 44.52675781 -13.07299805 44.52675781 -14.67578125 44.5859375 C-15.62364502 44.6173584 -16.57150879 44.6487793 -17.5480957 44.68115234 C-22.40633285 45.12990103 -27.19977911 46.12723257 -32 47 C-32 31.49 -32 15.98 -32 0 C-21.19832506 -2.70041873 -10.74617096 -3.22385129 0 0 Z " fill="#212121" transform="translate(169,143)"/>
<path d="M0 0 C0.75474609 -0.00257813 1.50949219 -0.00515625 2.28710938 -0.0078125 C3.04701172 -0.00007812 3.80691406 0.00765625 4.58984375 0.015625 C5.35361328 0.00789062 6.11738281 0.00015625 6.90429688 -0.0078125 C7.65775391 -0.00523437 8.41121094 -0.00265625 9.1875 0 C10.18728882 0.00338379 10.18728882 0.00338379 11.20727539 0.00683594 C14.38419957 0.36120189 17.45371059 1.3874441 20.52734375 2.265625 C20.52734375 17.775625 20.52734375 33.285625 20.52734375 49.265625 C16.89734375 48.605625 13.26734375 47.945625 9.52734375 47.265625 C7.56955059 47.07462792 5.60641341 46.92304572 3.640625 46.8515625 C2.77477783 46.81595215 1.90893066 46.7803418 1.0168457 46.74365234 C-0.03156494 46.70965332 -1.07997559 46.6756543 -2.16015625 46.640625 C-5.56328125 46.516875 -8.96640625 46.393125 -12.47265625 46.265625 C-12.47265625 31.745625 -12.47265625 17.225625 -12.47265625 2.265625 C-3.45687643 0.01168005 -3.45687643 0.01168005 0 0 Z " fill="#313131" transform="translate(108.47265625,140.734375)"/>
<path d="M0 0 C2.23828125 1.42578125 2.23828125 1.42578125 4.3125 3.3125 C5.00988281 3.92738281 5.70726562 4.54226562 6.42578125 5.17578125 C8 7 8 7 8 10 C9.175625 9.938125 10.35125 9.87625 11.5625 9.8125 C22.41298551 9.82958738 33.03097099 12.91705049 43 17 C42.505 18.485 42.505 18.485 42 20 C38.7 19.01 35.4 18.02 32 17 C31.505 19.475 31.505 19.475 31 22 C31.804375 22.144375 32.60875 22.28875 33.4375 22.4375 C36 23 36 23 37 24 C37.04092937 26.33297433 37.04241723 28.66705225 37 31 C35.35 31.66 33.7 32.32 32 33 C31.67 32.01 31.34 31.02 31 30 C32.32 29.34 33.64 28.68 35 28 C35 27.34 35 26.68 35 26 C33.02 26 31.04 26 29 26 C28.67 28.64 28.34 31.28 28 34 C26.515 34.495 26.515 34.495 25 35 C25 32.69 25 30.38 25 28 C24.05125 27.896875 23.1025 27.79375 22.125 27.6875 C19 27 19 27 17 24 C17.54054054 19.45945946 17.54054054 19.45945946 19 18 C21.9375 17.75 21.9375 17.75 25 18 C25.99 19.485 25.99 19.485 27 21 C27.66 19.02 28.32 17.04 29 15 C23.72 14.34 18.44 13.68 13 13 C13 18.94 13 24.88 13 31 C12.01 31 11.02 31 10 31 C10 28.03 10 25.06 10 22 C7.69 22 5.38 22 3 22 C3 22.66 3 23.32 3 24 C1.0625 23.1875 1.0625 23.1875 -1 22 C-1.495 20.515 -1.495 20.515 -2 19 C-1.01 19 -0.02 19 1 19 C1 16.69 1 14.38 1 12 C-1.31 12 -3.62 12 -6 12 C-5.75443359 12.75023437 -5.75443359 12.75023437 -5.50390625 13.515625 C-4.8121089 16.9263468 -4.89495335 20.28735757 -4.9375 23.75 C-4.94201172 24.44738281 -4.94652344 25.14476563 -4.95117188 25.86328125 C-4.9628998 27.57555803 -4.98083347 29.28779033 -5 31 C-6.485 30.505 -6.485 30.505 -8 30 C-8.495 21.09 -8.495 21.09 -9 12 C-10.65 12 -12.3 12 -14 12 C-13.7834375 13.02480469 -13.566875 14.04960937 -13.34375 15.10546875 C-13.06224166 16.46609241 -12.78100605 17.82677251 -12.5 19.1875 C-12.35691406 19.86103516 -12.21382812 20.53457031 -12.06640625 21.22851562 C-11.31930158 24.87509793 -10.82647718 28.27648957 -11 32 C-14 31 -14 31 -15.1875 28.9375 C-15.455625 28.298125 -15.72375 27.65875 -16 27 C-16.70125 27.268125 -17.4025 27.53625 -18.125 27.8125 C-21.41031327 28.02675956 -21.86149867 27.67857471 -24.3125 25.6875 C-25.199375 24.800625 -26.08625 23.91375 -27 23 C-27 22.34 -27 21.68 -27 21 C-26.01 20.67 -25.02 20.34 -24 20 C-23.26676204 17.98491642 -23.26676204 17.98491642 -23 16 C-29.57534861 16.62031591 -35.66692592 18.14897283 -42 20 C-42.33 21.32 -42.66 22.64 -43 24 C-41.02 23.34 -39.04 22.68 -37 22 C-36.34 22.66 -35.68 23.32 -35 24 C-35.66 24.66 -36.32 25.32 -37 26 C-37 27.32 -37 28.64 -37 30 C-33.75791433 29.64950425 -32.38472296 29.43778819 -30.1875 26.9375 C-29.795625 26.298125 -29.40375 25.65875 -29 25 C-28.505 27.475 -28.505 27.475 -28 30 C-30.41669703 32.23079726 -31.75015327 32.96940652 -35.0625 33.375 C-38 33 -38 33 -39.875 31.75 C-41 30 -41 30 -41 26 C-42.32 26 -43.64 26 -45 26 C-45 24.68 -45 23.36 -45 22 C-46.98 22.66 -48.96 23.32 -51 24 C-50.54560547 24.7113208 -50.54560547 24.7113208 -50.08203125 25.43701172 C-48.71668754 27.58007621 -47.35827861 29.72745138 -46 31.875 C-45.52304688 32.62136719 -45.04609375 33.36773437 -44.5546875 34.13671875 C-44.10351562 34.85214844 -43.65234375 35.56757812 -43.1875 36.3046875 C-42.76855469 36.96452637 -42.34960938 37.62436523 -41.91796875 38.30419922 C-41 40 -41 40 -41 42 C-42.734375 41.91015625 -42.734375 41.91015625 -45 41 C-46.58470389 38.82247806 -47.92718158 36.76223089 -49.25 34.4375 C-49.61351563 33.82197266 -49.97703125 33.20644531 -50.3515625 32.57226562 C-51.2456088 31.05473967 -52.12431628 29.52819561 -53 28 C-54.32 28.33 -55.64 28.66 -57 29 C-57 32.49798933 -54.097942 34.97138688 -52 37.625 C-51.52304688 38.23601563 -51.04609375 38.84703125 -50.5546875 39.4765625 C-49.37408243 40.98773699 -48.18758852 42.49430741 -47 44 C-48.828125 44.65234375 -48.828125 44.65234375 -51 45 C-53.75 42.5625 -53.75 42.5625 -56 40 C-57.32 40.66 -58.64 41.32 -60 42 C-59.67 43.32 -59.34 44.64 -59 46 C-60.98 46 -62.96 46 -65 46 C-66 43 -67 40 -68 37 C-69.32 37.66 -70.64 38.32 -72 39 C-72 37.68 -72 36.36 -72 35 C-70.02766241 33.18791484 -68.19646496 31.74450796 -66 30.25 C-65.37641602 29.81606934 -64.75283203 29.38213867 -64.11035156 28.93505859 C-57.11634442 24.20014697 -49.67223144 20.49493811 -42 17 C-41.09507813 16.57847656 -40.19015625 16.15695313 -39.2578125 15.72265625 C-29.69825293 11.56973283 -19.40686827 9.46171371 -9 10 C-9.0825 8.906875 -9.165 7.81375 -9.25 6.6875 C-9 3 -9 3 -7.3125 1.0625 C-4.56247708 -0.20102404 -3.00508752 -0.31302995 0 0 Z " fill="#171717" transform="translate(133,7)"/>
<path d="M0 0 C-0.33 1.65 -0.66 3.3 -1 5 C0.010625 5.62648438 1.02125 6.25296875 2.0625 6.8984375 C3.37523472 7.72358504 4.68772205 8.54912623 6 9.375 C6.66773438 9.7875 7.33546875 10.2 8.0234375 10.625 C9.71727194 11.69660955 11.36308864 12.84330499 13 14 C13 14.66 13 15.32 13 16 C11.02 15.67 9.04 15.34 7 15 C6.566875 15.9590625 6.566875 15.9590625 6.125 16.9375 C5 19 5 19 3 20 C1.45976004 20.06950541 -0.08334988 20.08452357 -1.625 20.0625 C-2.85089844 20.04896484 -2.85089844 20.04896484 -4.1015625 20.03515625 C-4.72804687 20.02355469 -5.35453125 20.01195313 -6 20 C-6 19.34 -6 18.68 -6 18 C-5.34 18 -4.68 18 -4 18 C-4.495 16.02 -4.495 16.02 -5 14 C-6.91466367 14.12177688 -6.91466367 14.12177688 -9 15 C-11.14197494 17.90696599 -12 19.35521088 -12 23 C-6.72 25.64 -1.44 28.28 4 31 C4 31.33 4 31.66 4 32 C-1.09770828 32.3718693 -4.31465455 31.23363859 -8.875 29 C-10.02742188 28.443125 -11.17984375 27.88625 -12.3671875 27.3125 C-13.23601563 26.879375 -14.10484375 26.44625 -15 26 C-15.66 27.98 -16.32 29.96 -17 32 C-15.68 32.66 -14.36 33.32 -13 34 C-13.33 36.97 -13.66 39.94 -14 43 C-10.52852158 43.74957157 -10.52852158 43.74957157 -7 44 C-7 42.35 -7 40.7 -7 39 C-8.32 38.67 -9.64 38.34 -11 38 C-10.67 37.01 -10.34 36.02 -10 35 C-9.13375 35.20625 -8.2675 35.4125 -7.375 35.625 C-3.63571398 36.04047622 -1.45057859 35.39666276 2 34 C2 35.32 2 36.64 2 38 C0.02 38 -1.96 38 -4 38 C-3.34 39.98 -2.68 41.96 -2 44 C-1.34 44 -0.68 44 0 44 C0 44.99 0 45.98 0 47 C-1.32 46.67 -2.64 46.34 -4 46 C-4 45.34 -4 44.68 -4 44 C-4.495 44.495 -4.99 44.99 -5.5 45.5 C-9.18629954 47.71177972 -11.73176192 47.34421275 -16 47 C-18 45 -18 45 -18.1875 41.5625 C-18 38 -18 38 -17 35 C-17.99 35 -18.98 35 -20 35 C-20.1340625 36.00289062 -20.268125 37.00578125 -20.40625 38.0390625 C-20.9496555 41.85246801 -21.722107 45.60221893 -22.5 49.375 C-24.18361261 57.88124743 -24.68949086 66.34857302 -25 75 C-23.02 75 -21.04 75 -19 75 C-19.226875 74.071875 -19.45375 73.14375 -19.6875 72.1875 C-20 69 -20 69 -18.9375 67.125 C-16.24099753 65.55928889 -14.05869541 65.79608697 -11 66 C-10.34 67.32 -9.68 68.64 -9 70 C-12.76687864 70 -13.91190305 69.76462683 -17 68 C-16.34 69.65 -15.68 71.3 -15 73 C-11.7 73.33 -8.4 73.66 -5 74 C-6.39195915 76.7839183 -8.15575779 76.97898997 -11 78 C-10.938125 78.928125 -10.87625 79.85625 -10.8125 80.8125 C-11 84 -11 84 -12.1875 85.9375 C-14 87 -14 87 -16.625 86.75 C-19 86 -19 86 -20 85 C-20.125 82 -20.125 82 -20 79 C-19.67 78.67 -19.34 78.34 -19 78 C-20.65 78 -22.3 78 -24 78 C-23.67 81.3 -23.34 84.6 -23 88 C-23.99 88 -24.98 88 -26 88 C-27.3271261 84.0186217 -27.06915913 80.14954773 -27 76 C-29.98220128 76.54839062 -29.98220128 76.54839062 -33 78 C-34.3045656 80.99615946 -34.3045656 80.99615946 -35 84 C-35.99 84.495 -35.99 84.495 -37 85 C-37.32316568 81.44517748 -37.45553291 79.62424881 -35.3125 76.6875 C-32.78477367 74.84294295 -31.04064599 74.5092956 -28 74 C-28.03480469 73.25878906 -28.06960937 72.51757812 -28.10546875 71.75390625 C-28.47099842 57.53306142 -25.46577219 44.43532313 -21 31 C-20.3091067 28.67257731 -19.65259926 26.33848067 -19 24 C-21.31 23.67 -23.62 23.34 -26 23 C-24.6910428 26.12197478 -24.6910428 26.12197478 -22 28 C-22 28.99 -22 29.98 -22 31 C-26.75 30.25 -26.75 30.25 -29 28 C-28.43181818 22.43181818 -28.43181818 22.43181818 -27 21 C-19.70588235 20.76470588 -19.70588235 20.76470588 -16 22 C-15.64228516 20.72189453 -15.64228516 20.72189453 -15.27734375 19.41796875 C-13.86220172 15.63127371 -11.89885769 12.5698129 -9.5625 9.3125 C-9.16740234 8.74466797 -8.77230469 8.17683594 -8.36523438 7.59179688 C-3.01626612 0 -3.01626612 0 0 0 Z " fill="#141414" transform="translate(52,54)"/>
<path d="M0 0 C0.495 1.485 0.495 1.485 1 3 C0.34 3 -0.32 3 -1 3 C-0.566875 3.69867188 -0.13375 4.39734375 0.3125 5.1171875 C0.869375 6.02726563 1.42625 6.93734375 2 7.875 C2.556875 8.77992188 3.11375 9.68484375 3.6875 10.6171875 C5 13 5 13 5 15 C3.68 15 2.36 15 1 15 C0.01 15.66 -0.98 16.32 -2 17 C-4.5625 16.875 -4.5625 16.875 -7 16 C-8.3125 13.9375 -8.3125 13.9375 -9 12 C-8.01 11.01 -7.02 10.02 -6 9 C-7.65 9.66 -9.3 10.32 -11 11 C-9.7874262 14.72433382 -8.49140021 18.37802806 -7 22 C-10.71368887 20.76210371 -11.77354181 19.14775123 -14 16 C-14 15.34 -14 14.68 -14 14 C-14.99 14.33 -15.98 14.66 -17 15 C-16.2265625 16.0828125 -16.2265625 16.0828125 -15.4375 17.1875 C-13.78557018 20.4195366 -13.93648325 21.61608307 -15 25 C-16.8125 25.6875 -16.8125 25.6875 -19 26 C-20.8125 24.8125 -20.8125 24.8125 -22 23 C-21.6875 20.8125 -21.6875 20.8125 -21 19 C-20.34 19 -19.68 19 -19 19 C-19.495 18.01 -19.495 18.01 -20 17 C-22.31 17.33 -24.62 17.66 -27 18 C-26.71125 18.77085937 -26.4225 19.54171875 -26.125 20.3359375 C-25.75375 21.33882813 -25.3825 22.34171875 -25 23.375 C-24.62875 24.37273437 -24.2575 25.37046875 -23.875 26.3984375 C-23 29 -23 29 -23 31 C-23.99 31 -24.98 31 -26 31 C-26.25394531 30.28972656 -26.50789063 29.57945312 -26.76953125 28.84765625 C-27.11371094 27.92855469 -27.45789063 27.00945312 -27.8125 26.0625 C-28.14894531 25.14597656 -28.48539063 24.22945313 -28.83203125 23.28515625 C-29.83409094 20.6659576 -29.83409094 20.6659576 -33 20 C-32.505 20.70125 -32.01 21.4025 -31.5 22.125 C-29.8063319 25.37119719 -29.74837685 27.39340156 -30 31 C-31.9914056 31.38133299 -33.99279077 31.71325582 -36 32 C-37 31 -37 31 -37.0625 28.4375 C-37.041875 27.633125 -37.02125 26.82875 -37 26 C-36.34 26 -35.68 26 -35 26 C-35 27.32 -35 28.64 -35 30 C-34.34 29.67 -33.68 29.34 -33 29 C-33.50603992 26.83125748 -33.99983813 25.00032373 -35 23 C-38.96 23.495 -38.96 23.495 -43 24 C-43.33 25.65 -43.66 27.3 -44 29 C-45.32 29.33 -46.64 29.66 -48 30 C-47.67 30.99 -47.34 31.98 -47 33 C-46.34 33.33 -45.68 33.66 -45 34 C-44.67 33.01 -44.34 32.02 -44 31 C-43.01 31.33 -42.02 31.66 -41 32 C-40.505 34.475 -40.505 34.475 -40 37 C-41.45922693 36.88590407 -42.91740598 36.75834456 -44.375 36.625 C-45.18710938 36.55539062 -45.99921875 36.48578125 -46.8359375 36.4140625 C-49 36 -49 36 -51 34 C-51.25 31.5 -51.25 31.5 -51 29 C-50.34 28.34 -49.68 27.68 -49 27 C-47.68 27 -46.36 27 -45 27 C-45 26.34 -45 25.68 -45 25 C-48.96 25.66 -52.92 26.32 -57 27 C-56.67 28.32 -56.34 29.64 -56 31 C-55.87794671 33.67540816 -55.95532687 36.31961238 -56 39 C-56.66 39 -57.32 39 -58 39 C-58.33 37.35 -58.66 35.7 -59 34 C-61.97 34.495 -61.97 34.495 -65 35 C-65 35.66 -65 36.32 -65 37 C-63.68 37.33 -62.36 37.66 -61 38 C-61 38.66 -61 39.32 -61 40 C-63.375 40.125 -63.375 40.125 -66 40 C-66.66 39.34 -67.32 38.68 -68 38 C-68 37.01 -68 36.02 -68 35 C-68.66 35 -69.32 35 -70 35 C-70 34.34 -70 33.68 -70 33 C-69.0409375 32.8453125 -69.0409375 32.8453125 -68.0625 32.6875 C-67.0415625 32.3471875 -67.0415625 32.3471875 -66 32 C-65.67 31.01 -65.34 30.02 -65 29 C-67.64 29 -70.28 29 -73 29 C-73 28.34 -73 27.68 -73 27 C-71.19982422 26.77957031 -71.19982422 26.77957031 -69.36328125 26.5546875 C-43.8661955 23.21784661 -20.63392977 15.66993231 0 0 Z " fill="#1E1E1E" transform="translate(213,244)"/>
<path d="M0 0 C2.23828125 1.42578125 2.23828125 1.42578125 4.3125 3.3125 C5.00988281 3.92738281 5.70726562 4.54226562 6.42578125 5.17578125 C8 7 8 7 8 10 C9.175625 9.938125 10.35125 9.87625 11.5625 9.8125 C22.41298551 9.82958738 33.03097099 12.91705049 43 17 C42.505 18.485 42.505 18.485 42 20 C38.7 19.01 35.4 18.02 32 17 C31.505 19.475 31.505 19.475 31 22 C31.804375 22.144375 32.60875 22.28875 33.4375 22.4375 C36 23 36 23 37 24 C37.04092937 26.33297433 37.04241723 28.66705225 37 31 C35.35 31.66 33.7 32.32 32 33 C31.67 32.01 31.34 31.02 31 30 C32.32 29.34 33.64 28.68 35 28 C35 27.34 35 26.68 35 26 C33.02 26 31.04 26 29 26 C28.67 28.64 28.34 31.28 28 34 C27.01 34.33 26.02 34.66 25 35 C25 32.69 25 30.38 25 28 C24.05125 27.896875 23.1025 27.79375 22.125 27.6875 C19 27 19 27 17 24 C17.54054054 19.45945946 17.54054054 19.45945946 19 18 C21.9375 17.75 21.9375 17.75 25 18 C25.66 18.99 26.32 19.98 27 21 C27.66 19.02 28.32 17.04 29 15 C23.72 14.34 18.44 13.68 13 13 C13 18.94 13 24.88 13 31 C12.01 31 11.02 31 10 31 C10 28.03 10 25.06 10 22 C7.69 22 5.38 22 3 22 C3 22.66 3 23.32 3 24 C1.0625 23.1875 1.0625 23.1875 -1 22 C-1.33 21.01 -1.66 20.02 -2 19 C-1.01 19 -0.02 19 1 19 C1 16.69 1 14.38 1 12 C-0.98 12 -2.96 12 -5 12 C-3.68 11.34 -2.36 10.68 -1 10 C-2.65 9.67 -4.3 9.34 -6 9 C-6.12375 8.195625 -6.2475 7.39125 -6.375 6.5625 C-6.684375 5.2940625 -6.684375 5.2940625 -7 4 C-7.66 3.67 -8.32 3.34 -9 3 C-5.90871598 0.25219198 -4.12063273 -0.47215583 0 0 Z " fill="#0F0F0F" transform="translate(133,7)"/>
<path d="M0 0 C0.99 0.33 1.98 0.66 3 1 C6.44419134 16.74487472 6.44419134 16.74487472 6 24 C9.01565163 22.99425024 9.01565163 22.99425024 12 21 C13.44967902 17.4306283 13.44967902 17.4306283 14 14 C14.66 14 15.32 14 16 14 C16.7155606 20.08226513 16.7155606 20.08226513 14.76953125 22.578125 C12.09924904 24.87258971 10.57356623 26 7 26 C7.01160156 26.85722656 7.02320313 27.71445313 7.03515625 28.59765625 C7.0818041 34.50860552 7.08249916 40.18156704 6 46 C6.928125 45.773125 7.85625 45.54625 8.8125 45.3125 C12 45 12 45 13.9375 46.1875 C15 48 15 48 14.6875 50.1875 C14.460625 50.785625 14.23375 51.38375 14 52 C12.02 52.495 12.02 52.495 10 53 C10.66 51.68 11.32 50.36 12 49 C8.52852158 48.25042843 8.52852158 48.25042843 5 48 C5 48.99 5 49.98 5 51 C4.01 51 3.02 51 2 51 C2 49.68 2 48.36 2 47 C0.68 47 -0.64 47 -2 47 C-1.67 43.7 -1.34 40.4 -1 37 C-1.99 37 -2.98 37 -4 37 C-3.79375 38.093125 -3.5875 39.18625 -3.375 40.3125 C-3 44 -3 44 -5 47 C-8.42201828 47.37331109 -10.90185629 47.63763183 -13.9375 45.875 C-15.63511288 42.87921256 -15.73155475 41.39175383 -15 38 C-12.55247023 35.64845179 -9.86732117 33.80487627 -7 32 C-6.34 32.33 -5.68 32.66 -5 33 C-5.99 33.721875 -6.98 34.44375 -8 35.1875 C-10.69218509 37.37283152 -10.69218509 37.37283152 -11.375 40.8125 C-11.25125 41.534375 -11.1275 42.25625 -11 43 C-9.35 43.66 -7.7 44.32 -6 45 C-6.226875 43.741875 -6.45375 42.48375 -6.6875 41.1875 C-7.16341493 37.29051543 -7.16341493 37.29051543 -5.875 35 C-3.437438 33.69996694 -1.72344361 33.71332173 1 34 C1.495 34.495 1.495 34.495 2 35 C1.91062197 36.52519276 1.75462854 38.04681929 1.5625 39.5625 C1.46066406 40.38878906 1.35882813 41.21507812 1.25390625 42.06640625 C1.17011719 42.70449219 1.08632812 43.34257812 1 44 C1.66 44 2.32 44 3 44 C3.33 38.39 3.66 32.78 4 27 C-2.27 27 -8.54 27 -15 27 C-14.67 26.01 -14.34 25.02 -14 24 C-8.06 24 -2.12 24 4 24 C3.67 22.02 3.34 20.04 3 18 C2.13117188 18.144375 1.26234375 18.28875 0.3671875 18.4375 C-0.78523437 18.623125 -1.93765625 18.80875 -3.125 19 C-4.26195312 19.185625 -5.39890625 19.37125 -6.5703125 19.5625 C-9.76137602 19.96956049 -12.78817791 20.07809902 -16 20 C-15.505 18.515 -15.505 18.515 -15 17 C-13.35 17 -11.7 17 -10 17 C-10.66 16.01 -11.32 15.02 -12 14 C-12.56037358 7.72381588 -12.56037358 7.72381588 -10.5 5.0625 C-10.005 4.711875 -9.51 4.36125 -9 4 C-8.34 4.33 -7.68 4.66 -7 5 C-7.99 6.485 -7.99 6.485 -9 8 C-9 8.99 -9 9.98 -9 11 C-7.68 10.34 -6.36 9.68 -5 9 C-5.66 10.65 -6.32 12.3 -7 14 C-6.01 14 -5.02 14 -4 14 C-3.67 12.68 -3.34 11.36 -3 10 C-2.34 10 -1.68 10 -1 10 C-1.33 11.65 -1.66 13.3 -2 15 C-0.68 15 0.64 15 2 15 C1.855625 14.25234375 1.71125 13.5046875 1.5625 12.734375 C1.376875 11.74953125 1.19125 10.7646875 1 9.75 C0.814375 8.77546875 0.62875 7.8009375 0.4375 6.796875 C0 4 0 4 0 0 Z " fill="#121212" transform="translate(235,92)"/>
<path d="M0 0 C16.17 0 32.34 0 49 0 C49 0.99 49 1.98 49 3 C48.34 3 47.68 3 47 3 C47 8.28 47 13.56 47 19 C46.01 19 45.02 19 44 19 C44 16.03 44 13.06 44 10 C41.03 10 38.06 10 35 10 C36.6380249 13.51005335 38.03134491 16.45543849 41 19 C36.61750634 17.66090471 34.42050749 15.91005056 32 12 C32.18809459 9.74286486 32.39545559 8.60454441 34 7 C35.68608966 6.92794489 37.37500659 6.91613932 39.0625 6.9375 C39.98160156 6.94652344 40.90070313 6.95554688 41.84765625 6.96484375 C42.55792969 6.97644531 43.26820313 6.98804688 44 7 C44 5.68 44 4.36 44 3 C38.39 3 32.78 3 27 3 C27 5.31 27 7.62 27 10 C25.68 10.33 24.36 10.66 23 11 C24.1678266 14.81413002 24.1678266 14.81413002 27.125 17.3125 C28.053125 17.6528125 28.053125 17.6528125 29 18 C24.64748813 18 23.07190602 15.93834489 20 13 C19 10.8125 19 10.8125 19 9 C19.66 8.34 20.32 7.68 21 7 C21.99 7 22.98 7 24 7 C24 5.68 24 4.36 24 3 C21.36 3 18.72 3 16 3 C16 8.28 16 13.56 16 19 C15.01 19 14.02 19 13 19 C13 13.72 13 8.44 13 3 C11.68 3 10.36 3 9 3 C9 8.61 9 14.22 9 20 C7.68 19.34 6.36 18.68 5 18 C5 15.69 5 13.38 5 11 C3.02 11 1.04 11 -1 11 C-1 11.99 -1 12.98 -1 14 C-3.16874252 13.49396008 -4.99967627 13.00016187 -7 12 C-7 11.01 -7 10.02 -7 9 C-6.34 9 -5.68 9 -5 9 C-5.33 7.35 -5.66 5.7 -6 4 C-6.99 3.67 -7.98 3.34 -9 3 C-9 2.34 -9 1.68 -9 1 C-4.55063291 0.63924051 -4.55063291 0.63924051 -2.1875 2.1875 C-0.63321794 4.55982525 -0.77462812 6.22041345 -1 9 C0.98 9 2.96 9 5 9 C5 7.02 5 5.04 5 3 C3.35 2.67 1.7 2.34 0 2 C0 1.34 0 0.68 0 0 Z " fill="#212121" transform="translate(114,220)"/>
<path d="M0 0 C5.875 0.875 5.875 0.875 7 2 C7.04063832 3.66617115 7.042721 5.33388095 7 7 C6.01 7.33 5.02 7.66 4 8 C5.32 8.33 6.64 8.66 8 9 C8 7.68 8 6.36 8 5 C12.32985152 5.93388954 15.85495252 8.0453603 19.6875 10.1875 C28.15571051 14.81755407 36.82355634 18.07134777 46 21 C46.495 20.505 46.495 20.505 47 20 C47 19.34 47 18.68 47 18 C45.68 17.34 44.36 16.68 43 16 C43 15.34 43 14.68 43 14 C46.65316671 15.24976756 47.78065836 15.67098753 50 19 C50 20.32 50 21.64 50 23 C51.32 23 52.64 23 54 23 C54 23.66 54 24.32 54 25 C52.68 25 51.36 25 50 25 C49.67 28.63 49.34 32.26 49 36 C48.01 36 47.02 36 46 36 C46.66 32.04 47.32 28.08 48 24 C46.35 23.67 44.7 23.34 43 23 C42.814375 24.299375 42.814375 24.299375 42.625 25.625 C42.01941879 28.89513853 41.11693965 31.87256899 40 35 C39.01 34.505 39.01 34.505 38 34 C38 31.36 38 28.72 38 26 C36.68 26 35.36 26 34 26 C34.495 28.97 34.495 28.97 35 32 C34.01 32 33.02 32 32 32 C31.34 31.34 30.68 30.68 30 30 C30.32971479 26.70285207 30.6226839 25.3773161 33 23 C38.33333333 22.66666667 38.33333333 22.66666667 41 24 C41 23.34 41 22.68 41 22 C37.04 21.01 33.08 20.02 29 19 C27.35 22.3 25.7 25.6 24 29 C23.01 28.67 22.02 28.34 21 28 C21.33 26.02 21.66 24.04 22 22 C20.02 21.34 18.04 20.68 16 20 C16.33 20.99 16.66 21.98 17 23 C17.99 23.33 18.98 23.66 20 24 C20 24.66 20 25.32 20 26 C18.35 25.67 16.7 25.34 15 25 C14.34 22.69 13.68 20.38 13 18 C13.66 17.34 14.32 16.68 15 16 C17.125 16.375 17.125 16.375 19 17 C19.03525132 15.11341126 19.03525132 15.11341126 18 13 C15.75835678 11.40498463 13.46433357 10.25456982 11 9 C10.7525 9.53625 10.505 10.0725 10.25 10.625 C8.70303025 13.56424252 6.86985631 16.25754408 5 19 C4.34 18.67 3.68 18.34 3 18 C3.66 16.02 4.32 14.04 5 12 C4.34 12.66 3.68 13.32 3 14 C-0.10903631 13.80155087 -2.30285895 13.44976842 -4.9375 11.75 C-6 10 -6 10 -5.6875 7.3125 C-5.460625 6.549375 -5.23375 5.78625 -5 5 C-2.2160817 6.39195915 -2.02101003 8.15575779 -1 11 C-0.34 11 0.32 11 1 11 C0.835 10.401875 0.67 9.80375 0.5 9.1875 C0 7 0 7 0 4 C2.475 4.99 2.475 4.99 5 6 C5 5.01 5 4.02 5 3 C2.03 2.505 2.03 2.505 -1 2 C-0.67 1.34 -0.34 0.68 0 0 Z " fill="#151515" transform="translate(53,245)"/>
<path d="M0 0 C3.5 0.5625 3.5 0.5625 5.9375 2.5 C8.03622409 6.61349921 7.85515259 10.03430448 7.5 14.5625 C7.17 14.5625 6.84 14.5625 6.5 14.5625 C6.37882812 13.93601562 6.25765625 13.30953125 6.1328125 12.6640625 C5.96523437 11.84679688 5.79765625 11.02953125 5.625 10.1875 C5.46257812 9.37539063 5.30015625 8.56328125 5.1328125 7.7265625 C4.63341068 5.37576077 4.63341068 5.37576077 2.5 3.5625 C-0.03951544 3.65361938 -0.03951544 3.65361938 -2.5 4.5625 C-3.49 6.0475 -3.49 6.0475 -4.5 7.5625 C-3.98953125 7.86800781 -3.4790625 8.17351563 -2.953125 8.48828125 C2.04343621 11.63327988 6.470725 15.14682522 10.8125 19.125 C11.31555664 19.58366455 11.81861328 20.0423291 12.33691406 20.51489258 C15.35881384 23.3306621 17.99926846 26.27769111 20.5 29.5625 C19.84 30.2225 19.18 30.8825 18.5 31.5625 C16.025 29.5825 16.025 29.5825 13.5 27.5625 C12.65695313 28.42875 11.81390625 29.295 10.9453125 30.1875 C9.83880643 31.31276041 8.73202112 32.43774628 7.625 33.5625 C7.06941406 34.13484375 6.51382813 34.7071875 5.94140625 35.296875 C4.49865596 36.75700782 3.0025626 38.16399298 1.5 39.5625 C0.84 39.5625 0.18 39.5625 -0.5 39.5625 C0.05345793 35.74789766 1.65347764 34.14011202 4.4375 31.5625 C7.1491628 29.04276977 9.04109088 26.98444389 10.5 23.5625 C8.85 22.2425 7.2 20.9225 5.5 19.5625 C5.396875 20.490625 5.29375 21.41875 5.1875 22.375 C4.5 25.5625 4.5 25.5625 3.375 27.5 C0.36231514 29.20718809 -2.2310945 28.24095209 -5.5 27.5625 C-5.17 30.2025 -4.84 32.8425 -4.5 35.5625 C-5.16 35.2325 -5.82 34.9025 -6.5 34.5625 C-6.79382062 32.57104914 -7.07988001 30.57713094 -7.28125 28.57421875 C-7.50633563 26.50423487 -7.91708298 24.56107263 -8.5 22.5625 C-6.85 22.2325 -5.2 21.9025 -3.5 21.5625 C-3.17 22.5525 -2.84 23.5425 -2.5 24.5625 C-0.85 24.2325 0.8 23.9025 2.5 23.5625 C2.5 22.5725 2.5 21.5825 2.5 20.5625 C1.18 19.9025 -0.14 19.2425 -1.5 18.5625 C-1.5 17.9025 -1.5 17.2425 -1.5 16.5625 C-0.51 16.2325 0.48 15.9025 1.5 15.5625 C-1.14 13.9125 -3.78 12.2625 -6.5 10.5625 C-9.8 15.1825 -13.1 19.8025 -16.5 24.5625 C-17.16 24.2325 -17.82 23.9025 -18.5 23.5625 C-17.88126885 19.815255 -16.17296908 17.46328643 -13.9375 14.4375 C-11.33698847 11.30760571 -11.33698847 11.30760571 -10.5 7.5625 C-11.82 6.9025 -13.14 6.2425 -14.5 5.5625 C-14.17 4.5725 -13.84 3.5825 -13.5 2.5625 C-11.52 3.2225 -9.54 3.8825 -7.5 4.5625 C-6.984375 3.9025 -6.46875 3.2425 -5.9375 2.5625 C-3.5 0.5625 -3.5 0.5625 0 0 Z " fill="#0F0F0F" transform="translate(196.5,25.4375)"/>
<path d="M0 0 C2.125 0.9375 2.125 0.9375 4 2 C4.125 4.375 4.125 4.375 4 7 C3.34 7.66 2.68 8.32 2 9 C1.01 9 0.02 9 -1 9 C-0.01 10.485 -0.01 10.485 1 12 C2.32 11.67 3.64 11.34 5 11 C5 9.35 5 7.7 5 6 C9.28705043 7.42901681 10.23208702 10.57025431 12.1875 14.375 C12.55552734 15.06078125 12.92355469 15.7465625 13.30273438 16.453125 C16 21.59744608 16 21.59744608 16 25 C15.01 24.67 14.02 24.34 13 24 C13 23.34 13 22.68 13 22 C7.39 24.64 1.78 27.28 -4 30 C-4.33 29.01 -4.66 28.02 -5 27 C-0.05 24.36 4.9 21.72 10 19 C9.505 16.525 9.505 16.525 9 14 C3.20909522 17.15014496 -2.44805341 20.44493883 -8 24 C-7.8125 21.6875 -7.8125 21.6875 -7 19 C-4.4375 17.1875 -4.4375 17.1875 -2 16 C-2.33 13.36 -2.66 10.72 -3 8 C-5.31 8 -7.62 8 -10 8 C-9.67 8.99 -9.34 9.98 -9 11 C-7.68 11 -6.36 11 -5 11 C-5.33 12.32 -5.66 13.64 -6 15 C-6.99 15 -7.98 15 -9 15 C-9 16.65 -9 18.3 -9 20 C-9.66 20 -10.32 20 -11 20 C-10.95875 19.05125 -10.9175 18.1025 -10.875 17.125 C-10.65026182 13.89755144 -10.65026182 13.89755144 -13 12 C-12.43181818 6.43181818 -12.43181818 6.43181818 -11 5 C-8.32941149 4.85884839 -5.67567762 4.95752893 -3 5 C-2.87625 4.360625 -2.7525 3.72125 -2.625 3.0625 C-2.41875 2.381875 -2.2125 1.70125 -2 1 C-1.34 0.67 -0.68 0.34 0 0 Z " fill="#161616" transform="translate(217,58)"/>
<path d="M0 0 C5.94 0 11.88 0 18 0 C18 1.32 18 2.64 18 4 C15.69 4 13.38 4 11 4 C12.12534105 5.35618499 12.12534105 5.35618499 15.0625 5.0625 C16.031875 5.041875 17.00125 5.02125 18 5 C18 6.32 18 7.64 18 9 C15.69 9 13.38 9 11 9 C12.12534105 10.35618499 12.12534105 10.35618499 15.0625 10.0625 C16.031875 10.041875 17.00125 10.02125 18 10 C18 11.32 18 12.64 18 14 C15.69 14 13.38 14 11 14 C11 15.65 11 17.3 11 19 C9.02 19 7.04 19 5 19 C4.67 17.35 4.34 15.7 4 14 C4 15.65 4 17.3 4 19 C2.68 19 1.36 19 0 19 C0 16.03 0 13.06 0 10 C0.99 10 1.98 10 3 10 C3 10.99 3 11.98 3 13 C3.66 13 4.32 13 5 13 C5.020625 11.700625 5.04125 10.40125 5.0625 9.0625 C5.07410156 8.33160156 5.08570313 7.60070312 5.09765625 6.84765625 C5.20561184 4.98267859 5.20561184 4.98267859 4 4 C4 5.32 4 6.64 4 8 C2.68 8 1.36 8 0 8 C0 5.36 0 2.72 0 0 Z " fill="#ACACAC" transform="translate(143,165)"/>
<path d="M0 0 C-0.33 1.65 -0.66 3.3 -1 5 C0.010625 5.62648438 1.02125 6.25296875 2.0625 6.8984375 C3.37523472 7.72358504 4.68772205 8.54912623 6 9.375 C6.66773437 9.7875 7.33546875 10.2 8.0234375 10.625 C9.71727194 11.69660955 11.36308864 12.84330499 13 14 C13 14.66 13 15.32 13 16 C10.03 15.505 10.03 15.505 7 15 C6.566875 15.9590625 6.566875 15.9590625 6.125 16.9375 C5 19 5 19 3 20 C1.45976004 20.06950541 -0.08334988 20.08452357 -1.625 20.0625 C-2.85089844 20.04896484 -2.85089844 20.04896484 -4.1015625 20.03515625 C-4.72804688 20.02355469 -5.35453125 20.01195313 -6 20 C-6 19.34 -6 18.68 -6 18 C-5.34 18 -4.68 18 -4 18 C-4.33 16.68 -4.66 15.36 -5 14 C-6.87880872 14.04768403 -6.87880872 14.04768403 -9 15 C-10.36176581 16.98075027 -11.69593116 18.98079663 -13 21 C-13.99 21.33 -14.98 21.66 -16 22 C-14.64231256 17.14901946 -12.47162629 13.36835781 -9.5625 9.3125 C-8.96985352 8.46075195 -8.96985352 8.46075195 -8.36523438 7.59179688 C-3.01626612 0 -3.01626612 0 0 0 Z " fill="#131313" transform="translate(52,54)"/>
<path d="M0 0 C1.32 0.33 2.64 0.66 4 1 C4.33 0.67 4.66 0.34 5 0 C6.66608987 -0.04384447 8.33380554 -0.0396713 10 0 C10.99 0 11.98 0 13 0 C14.66666667 0 16.33333333 0 18 0 C18 1.32 18 2.64 18 4 C15.69 4 13.38 4 11 4 C11.33 4.66 11.66 5.32 12 6 C13.98 6 15.96 6 18 6 C18 6.99 18 7.98 18 9 C15.69 9 13.38 9 11 9 C11.33 9.66 11.66 10.32 12 11 C13.98 11 15.96 11 18 11 C18 11.99 18 12.98 18 14 C15.69 14 13.38 14 11 14 C11 15.65 11 17.3 11 19 C9.02 19 7.04 19 5 19 C4.67 17.35 4.34 15.7 4 14 C4 15.65 4 17.3 4 19 C2.68 19 1.36 19 0 19 C0 16.36 0 13.72 0 11 C1.65 10.67 3.3 10.34 5 10 C5.042721 8.33388095 5.04063832 6.66617115 5 5 C4.67 4.67 4.34 4.34 4 4 C4 5.65 4 7.3 4 9 C2.68 9 1.36 9 0 9 C0 6.03 0 3.06 0 0 Z " fill="#979797" transform="translate(143,144)"/>
<path d="M0 0 C1.60433809 0.47859241 3.20846416 0.95789558 4.8125 1.4375 C5.70582031 1.70433594 6.59914062 1.97117187 7.51953125 2.24609375 C9.35473055 2.80387873 11.18033726 3.39344575 13 4 C12.67 4.99 12.34 5.98 12 7 C8.7 6.01 5.4 5.02 2 4 C1.67 5.65 1.34 7.3 1 9 C1.804375 9.144375 2.60875 9.28875 3.4375 9.4375 C6 10 6 10 7 11 C7.04092937 13.33297433 7.04241723 15.66705225 7 18 C5.35 18.66 3.7 19.32 2 20 C1.67 19.01 1.34 18.02 1 17 C2.32 16.34 3.64 15.68 5 15 C5 14.34 5 13.68 5 13 C3.02 13 1.04 13 -1 13 C-1.33 15.64 -1.66 18.28 -2 21 C-2.99 21.33 -3.98 21.66 -5 22 C-5 19.69 -5 17.38 -5 15 C-5.94875 14.896875 -6.8975 14.79375 -7.875 14.6875 C-11 14 -11 14 -13 11 C-12.45945946 6.45945946 -12.45945946 6.45945946 -11 5 C-8.0625 4.75 -8.0625 4.75 -5 5 C-4.01 6.485 -4.01 6.485 -3 8 C-2.01 5.36 -1.02 2.72 0 0 Z " fill="#0A0A0A" transform="translate(163,20)"/>
<path d="M0 0 C0.495 0.94875 0.99 1.8975 1.5 2.875 C4.41386129 8.01648713 8.23928722 12.46341201 12 17 C10.171875 17.65234375 10.171875 17.65234375 8 18 C5.25 15.5625 5.25 15.5625 3 13 C1.02 13.99 1.02 13.99 -1 15 C-0.67 16.32 -0.34 17.64 0 19 C-1.98 19 -3.96 19 -6 19 C-7 16 -8 13 -9 10 C-10.98 10.99 -10.98 10.99 -13 12 C-13 10.68 -13 9.36 -13 8 C-10.6640625 5.859375 -10.6640625 5.859375 -7.625 3.75 C-6.62726563 3.04359375 -5.62953125 2.3371875 -4.6015625 1.609375 C-2 0 -2 0 0 0 Z " fill="#131313" transform="translate(74,34)"/>
<path d="M0 0 C5.875 0.875 5.875 0.875 7 2 C7.04063832 3.66617115 7.042721 5.33388095 7 7 C6.01 7.33 5.02 7.66 4 8 C5.32 8.33 6.64 8.66 8 9 C8 7.68 8 6.36 8 5 C10.82080379 5.61262631 13.13808856 6.47154809 15.671875 7.84765625 C16.33574219 8.20537109 16.99960938 8.56308594 17.68359375 8.93164062 C18.36550781 9.30482422 19.04742187 9.67800781 19.75 10.0625 C20.44738281 10.43955078 21.14476563 10.81660156 21.86328125 11.20507812 C23.57768302 12.13273388 25.28913661 13.06583454 27 14 C27 14.66 27 15.32 27 16 C24.525 15.505 24.525 15.505 22 15 C21.67 16.32 21.34 17.64 21 19 C19.35 19.33 17.7 19.66 16 20 C16.33 20.99 16.66 21.98 17 23 C17.99 23.33 18.98 23.66 20 24 C20 24.66 20 25.32 20 26 C18.35 25.67 16.7 25.34 15 25 C14.34 22.69 13.68 20.38 13 18 C13.66 17.34 14.32 16.68 15 16 C17.125 16.375 17.125 16.375 19 17 C19.03525132 15.11341126 19.03525132 15.11341126 18 13 C15.75835678 11.40498463 13.46433357 10.25456982 11 9 C10.7525 9.53625 10.505 10.0725 10.25 10.625 C8.70303025 13.56424252 6.86985631 16.25754408 5 19 C4.34 18.67 3.68 18.34 3 18 C3.66 16.02 4.32 14.04 5 12 C4.34 12.66 3.68 13.32 3 14 C-0.10903631 13.80155087 -2.30285895 13.44976842 -4.9375 11.75 C-6 10 -6 10 -5.6875 7.3125 C-5.460625 6.549375 -5.23375 5.78625 -5 5 C-2.2160817 6.39195915 -2.02101003 8.15575779 -1 11 C-0.34 11 0.32 11 1 11 C0.835 10.401875 0.67 9.80375 0.5 9.1875 C0 7 0 7 0 4 C2.475 4.99 2.475 4.99 5 6 C5 5.01 5 4.02 5 3 C2.03 2.505 2.03 2.505 -1 2 C-0.67 1.34 -0.34 0.68 0 0 Z " fill="#161616" transform="translate(53,245)"/>
<path d="M0 0 C0.99 0.33 1.98 0.66 3 1 C1.625 2.5 1.625 2.5 0 4 C-0.66 4 -1.32 4 -2 4 C-2.33 5.32 -2.66 6.64 -3 8 C-1.02 7.34 0.96 6.68 3 6 C3.66 6.66 4.32 7.32 5 8 C4.34 8.66 3.68 9.32 3 10 C3 11.32 3 12.64 3 14 C6.24208567 13.64950425 7.61527704 13.43778819 9.8125 10.9375 C10.204375 10.298125 10.59625 9.65875 11 9 C11.33 10.65 11.66 12.3 12 14 C9.58330297 16.23079726 8.24984673 16.96940652 4.9375 17.375 C2 17 2 17 0.125 15.75 C-1 14 -1 14 -1 10 C-2.32 10 -3.64 10 -5 10 C-5 8.68 -5 7.36 -5 6 C-6.98 6.66 -8.96 7.32 -11 8 C-10.69707031 8.47421387 -10.39414063 8.94842773 -10.08203125 9.43701172 C-8.71668754 11.58007621 -7.35827861 13.72745138 -6 15.875 C-5.52304688 16.62136719 -5.04609375 17.36773437 -4.5546875 18.13671875 C-4.10351562 18.85214844 -3.65234375 19.56757812 -3.1875 20.3046875 C-2.76855469 20.96452637 -2.34960938 21.62436523 -1.91796875 22.30419922 C-1 24 -1 24 -1 26 C-2.734375 25.91015625 -2.734375 25.91015625 -5 25 C-6.58470389 22.82247806 -7.92718158 20.76223089 -9.25 18.4375 C-9.61351563 17.82197266 -9.97703125 17.20644531 -10.3515625 16.57226562 C-11.2456088 15.05473967 -12.12431628 13.52819561 -13 12 C-14.98 12.33 -16.96 12.66 -19 13 C-18.45277179 9.34241268 -18.45277179 9.34241268 -16.44946289 7.82739258 C-15.7971167 7.51954834 -15.14477051 7.2117041 -14.47265625 6.89453125 C-13.40821289 6.37922852 -13.40821289 6.37922852 -12.32226562 5.85351562 C-11.20368164 5.33821289 -11.20368164 5.33821289 -10.0625 4.8125 C-9.32064453 4.45736328 -8.57878906 4.10222656 -7.81445312 3.73632812 C-6.43931414 3.07930342 -5.0613883 2.42805898 -3.67993164 1.78442383 C-2.44470554 1.20764989 -1.21932824 0.60966412 0 0 Z " fill="#151515" transform="translate(93,23)"/>
<path d="M0 0 C0.66 0.33 1.32 0.66 2 1 C1.01 1.721875 0.02 2.44375 -1 3.1875 C-3.69218509 5.37283152 -3.69218509 5.37283152 -4.375 8.8125 C-4.25125 9.534375 -4.1275 10.25625 -4 11 C-1.525 11.99 -1.525 11.99 1 13 C0.773125 11.741875 0.54625 10.48375 0.3125 9.1875 C-0.16341493 5.29051543 -0.16341493 5.29051543 1.125 3 C3.562562 1.69996694 5.27655639 1.71332173 8 2 C8.33 2.33 8.66 2.66 9 3 C8.91062197 4.52519276 8.75462854 6.04681929 8.5625 7.5625 C8.46066406 8.38878906 8.35882813 9.21507812 8.25390625 10.06640625 C8.17011719 10.70449219 8.08632812 11.34257812 8 12 C8.66 12 9.32 12 10 12 C10.33 11.34 10.66 10.68 11 10 C11 10.66 11 11.32 11 12 C11.66 12 12.32 12 13 12 C13 12.66 13 13.32 13 14 C13.928125 13.773125 14.85625 13.54625 15.8125 13.3125 C19 13 19 13 20.9375 14.1875 C22 16 22 16 21.6875 18.1875 C21.460625 18.785625 21.23375 19.38375 21 20 C19.68 20.33 18.36 20.66 17 21 C17.66 19.68 18.32 18.36 19 17 C15.52852158 16.25042843 15.52852158 16.25042843 12 16 C12 16.99 12 17.98 12 19 C11.01 19 10.02 19 9 19 C9 17.68 9 16.36 9 15 C7.68 15 6.36 15 5 15 C5.33 11.7 5.66 8.4 6 5 C5.01 5 4.02 5 3 5 C3.20625 6.093125 3.4125 7.18625 3.625 8.3125 C4 12 4 12 2 15 C-1.42201828 15.37331109 -3.90185629 15.63763183 -6.9375 13.875 C-8.63511288 10.87921256 -8.73155475 9.39175383 -8 6 C-5.55247023 3.64845179 -2.86732117 1.80487627 0 0 Z " fill="#232323" transform="translate(228,124)"/>
<path d="M0 0 C8.58 0.66 17.16 1.32 26 2 C26 2.66 26 3.32 26 4 C25.01 4 24.02 4 23 4 C23 7.63 23 11.26 23 15 C22.34 15 21.68 15 21 15 C21 11.37 21 7.74 21 4 C19.35 4 17.7 4 16 4 C16 7.63 16 11.26 16 15 C15.01 15 14.02 15 13 15 C13 13.02 13 11.04 13 9 C11.68 9 10.36 9 9 9 C9 10.32 9 11.64 9 13 C7.02 13 5.04 13 3 13 C2.375 10.625 2.375 10.625 2 8 C2.66 7.34 3.32 6.68 4 6 C4.99 6 5.98 6 7 6 C7 5.01 7 4.02 7 3 C4.69 2.67 2.38 2.34 0 2 C0 1.34 0 0.68 0 0 Z " fill="#1F1F1F" transform="translate(110,269)"/>
<path d="M0 0 C0.88042969 0.42152344 1.76085938 0.84304687 2.66796875 1.27734375 C3.82941406 1.82519531 4.99085937 2.37304688 6.1875 2.9375 C7.33605469 3.48277344 8.48460937 4.02804688 9.66796875 4.58984375 C12.51466736 5.79460131 14.96027845 6.54776271 18 7 C17.01 7.33 16.02 7.66 15 8 C15 8.66 15 9.32 15 10 C11.21812119 11.83691257 9.05431692 12.15837626 5 11 C5 11.66 5 12.32 5 13 C5.99 13.33 6.98 13.66 8 14 C8 15.65 8 17.3 8 19 C5.125 19.625 5.125 19.625 2 20 C0 18 0 18 -0.1875 15.0625 C0 12 0 12 1 9 C-0.32 8.34 -1.64 7.68 -3 7 C-1.125 1.125 -1.125 1.125 0 0 Z " fill="#DEDEDE" transform="translate(37,79)"/>
<path d="M0 0 C2.23828125 1.42578125 2.23828125 1.42578125 4.3125 3.3125 C5.00988281 3.92738281 5.70726562 4.54226562 6.42578125 5.17578125 C8 7 8 7 8 10 C7.34 10 6.68 10 6 10 C6 10.66 6 11.32 6 12 C5.34 12 4.68 12 4 12 C4.01160156 12.69867188 4.02320313 13.39734375 4.03515625 14.1171875 C4.04869141 15.48230469 4.04869141 15.48230469 4.0625 16.875 C4.07410156 17.77992187 4.08570313 18.68484375 4.09765625 19.6171875 C4 22 4 22 3 24 C1.0625 23.1875 1.0625 23.1875 -1 22 C-1.33 21.01 -1.66 20.02 -2 19 C-1.01 19 -0.02 19 1 19 C1 16.69 1 14.38 1 12 C-0.98 12 -2.96 12 -5 12 C-3.68 11.34 -2.36 10.68 -1 10 C-2.65 9.67 -4.3 9.34 -6 9 C-6.12375 8.195625 -6.2475 7.39125 -6.375 6.5625 C-6.684375 5.2940625 -6.684375 5.2940625 -7 4 C-7.66 3.67 -8.32 3.34 -9 3 C-5.90871598 0.25219198 -4.12063273 -0.47215583 0 0 Z " fill="#262626" transform="translate(133,7)"/>
<path d="M0 0 C3.33333333 0 6.66666667 0 10 0 C10 6.27 10 12.54 10 19 C6.7 19 3.4 19 0 19 C0 12.73 0 6.46 0 0 Z " fill="#949494" transform="translate(113,144)"/>
<path d="M0 0 C3.3 0 6.6 0 10 0 C10 1.32 10 2.64 10 4 C8.68 4 7.36 4 6 4 C7.32 4.33 8.64 4.66 10 5 C10 6.32 10 7.64 10 9 C8.68 9 7.36 9 6 9 C7.32 9.33 8.64 9.66 10 10 C10 11.32 10 12.64 10 14 C8.68 14 7.36 14 6 14 C6 15.65 6 17.3 6 19 C4.02 19 2.04 19 0 19 C0 12.73 0 6.46 0 0 Z " fill="#949494" transform="translate(113,165)"/>
<path d="M0 0 C0.33 0.99 0.66 1.98 1 3 C0.34 3 -0.32 3 -1 3 C-0.566875 3.69867188 -0.13375 4.39734375 0.3125 5.1171875 C0.869375 6.02726563 1.42625 6.93734375 2 7.875 C2.556875 8.77992188 3.11375 9.68484375 3.6875 10.6171875 C5 13 5 13 5 15 C3.68 15 2.36 15 1 15 C0.01 15.66 -0.98 16.32 -2 17 C-4.5625 16.875 -4.5625 16.875 -7 16 C-8.3125 13.9375 -8.3125 13.9375 -9 12 C-8.34 11.67 -7.68 11.34 -7 11 C-7.268125 10.443125 -7.53625 9.88625 -7.8125 9.3125 C-7.9053125 8.1678125 -7.9053125 8.1678125 -8 7 C-5.53973429 4.12969001 -3.14510786 2.09673857 0 0 Z " fill="#212121" transform="translate(213,244)"/>
<path d="M0 0 C0 1.98 0 3.96 0 6 C1.98 6 3.96 6 6 6 C5.67 6.66 5.34 7.32 5 8 C3.68 8.33 2.36 8.66 1 9 C1 15.27 1 21.54 1 28 C0.01 27.67 -0.98 27.34 -2 27 C-2.33 21.06 -2.66 15.12 -3 9 C-4.65 9 -6.3 9 -8 9 C-8.33 9.66 -8.66 10.32 -9 11 C-8.67 9.68 -8.34 8.36 -8 7 C-6.35 7 -4.7 7 -3 7 C-3 5.02 -3 3.04 -3 1 C-1 0 -1 0 0 0 Z " fill="#101010" transform="translate(127,10)"/>
<path d="M0 0 C-1.98 0.66 -3.96 1.32 -6 2 C-5.71125 2.77085937 -5.4225 3.54171875 -5.125 4.3359375 C-4.568125 5.84027344 -4.568125 5.84027344 -4 7.375 C-3.443125 8.87160156 -3.443125 8.87160156 -2.875 10.3984375 C-2 13 -2 13 -2 15 C-2.99 15 -3.98 15 -5 15 C-5.25394531 14.28972656 -5.50789062 13.57945312 -5.76953125 12.84765625 C-6.11371094 11.92855469 -6.45789063 11.00945312 -6.8125 10.0625 C-7.14894531 9.14597656 -7.48539063 8.22945313 -7.83203125 7.28515625 C-8.83409094 4.6659576 -8.83409094 4.6659576 -12 4 C-11.505 4.70125 -11.01 5.4025 -10.5 6.125 C-8.8063319 9.37119719 -8.74837685 11.39340156 -9 15 C-10.9914056 15.38133299 -12.99279077 15.71325582 -15 16 C-16 15 -16 15 -16.0625 12.4375 C-16.041875 11.633125 -16.02125 10.82875 -16 10 C-15.34 10 -14.68 10 -14 10 C-14 11.32 -14 12.64 -14 14 C-13.34 13.67 -12.68 13.34 -12 13 C-12.50603992 10.83125748 -12.99983813 9.00032373 -14 7 C-14.99 6.67 -15.98 6.34 -17 6 C-17 5.34 -17 4.68 -17 4 C-14.92227529 3.13227971 -12.83756823 2.28126381 -10.75 1.4375 C-9.58984375 0.96183594 -8.4296875 0.48617188 -7.234375 -0.00390625 C-4.13733356 -0.95770524 -2.92678299 -1.20983356 0 0 Z " fill="#141414" transform="translate(192,260)"/>
<path d="M0 0 C0.66 0 1.32 0 2 0 C4.38081145 3.57121718 4.26906871 5.26674633 4.25 9.5 C4.25515625 10.6446875 4.2603125 11.789375 4.265625 12.96875 C4 16 4 16 2 19 C1.01 18.67 0.02 18.34 -1 18 C-2.41693757 15.16612485 -2.1699013 12.71970627 -2.1875 9.5625 C-2.20167969 8.40878906 -2.21585938 7.25507812 -2.23046875 6.06640625 C-2 3 -2 3 0 0 Z " fill="#090909" transform="translate(132,106)"/>
<path d="M0 0 C3.3 0 6.6 0 10 0 C10.33 2.64 10.66 5.28 11 8 C9.02 8 7.04 8 5 8 C4.67 6.35 4.34 4.7 4 3 C4 4.65 4 6.3 4 8 C2.68 8 1.36 8 0 8 C0 5.36 0 2.72 0 0 Z M12 0 C13.98 0 15.96 0 18 0 C18 0.99 18 1.98 18 3 C15.69 3 13.38 3 11 3 C11.33 2.01 11.66 1.02 12 0 Z " fill="#B5B5B5" transform="translate(143,155)"/>
<path d="M0 0 C4.75 0.75 4.75 0.75 7 3 C7.6328125 5.6015625 7.6328125 5.6015625 8.125 8.625 C8.29257813 9.62789062 8.46015625 10.63078125 8.6328125 11.6640625 C8.75398437 12.43492188 8.87515625 13.20578125 9 14 C8.48050781 13.60167969 7.96101562 13.20335937 7.42578125 12.79296875 C3.72073158 9.97822677 0.06424935 7.28614026 -4 5 C-2.68 3.35 -1.36 1.7 0 0 Z " fill="#E0E0E0" transform="translate(195,28)"/>
<path d="M0 0 C3.125 0.375 3.125 0.375 5.125 2.625 C6.125 5.375 6.125 5.375 5.375 7.5 C4.9625 8.11875 4.55 8.7375 4.125 9.375 C3.795 10.365 3.465 11.355 3.125 12.375 C3.125 11.715 3.125 11.055 3.125 10.375 C2.17625 10.271875 1.2275 10.16875 0.25 10.0625 C-2.875 9.375 -2.875 9.375 -4.875 6.375 C-4.18099369 0.545347 -4.18099369 0.545347 0 0 Z " fill="#1C1C1C" transform="translate(154.875,24.625)"/>
<path d="M0 0 C0.66 0.33 1.32 0.66 2 1 C1 4 1 4 -1 5 C-0.42415568 7.38564077 0.22227595 9.66682784 1 12 C1.99 12.33 2.98 12.66 4 13 C4.6875 15.0625 4.6875 15.0625 5 17 C3.02 17 1.04 17 -1 17 C-2 14 -3 11 -4 8 C-5.98 8.99 -5.98 8.99 -8 10 C-8 8.68 -8 7.36 -8 6 C-6.25 4.296875 -6.25 4.296875 -4 2.75 C-3.2575 2.22921875 -2.515 1.7084375 -1.75 1.171875 C-1.1725 0.78515625 -0.595 0.3984375 0 0 Z " fill="#0F0F0F" transform="translate(69,36)"/>
<path d="M0 0 C0.99 0.33 1.98 0.66 3 1 C2.67 1.99 2.34 2.98 2 4 C0.02 4 -1.96 4 -4 4 C-3.34 5.98 -2.68 7.96 -2 10 C-1.34 10 -0.68 10 0 10 C0 10.99 0 11.98 0 13 C-1.32 12.67 -2.64 12.34 -4 12 C-4 11.34 -4 10.68 -4 10 C-5.65 10.66 -7.3 11.32 -9 12 C-9 11.34 -9 10.68 -9 10 C-8.34 10 -7.68 10 -7 10 C-7 8.35 -7 6.7 -7 5 C-8.32 4.67 -9.64 4.34 -11 4 C-10.67 3.01 -10.34 2.02 -10 1 C-9.0925 1.20625 -8.185 1.4125 -7.25 1.625 C-3.76861938 2.02669776 -2.9317167 1.61749887 0 0 Z " fill="#1C1C1C" transform="translate(52,88)"/>
<path d="M0 0 C6.625 -0.25 6.625 -0.25 10 2 C8.8553125 3.0209375 8.8553125 3.0209375 7.6875 4.0625 C4.67156669 7.35898525 3.54120983 9.86306835 2 14 C1.01 13.67 0.02 13.34 -1 13 C-0.79375 12.071875 -0.5875 11.14375 -0.375 10.1875 C0.36692966 6.84826598 0.36692966 6.84826598 -2 4 C-1.34 2.68 -0.68 1.36 0 0 Z " fill="#494949" transform="translate(75,260)"/>
<path d="M0 0 C0.75 1.6875 0.75 1.6875 1 4 C-0.5 6.8125 -0.5 6.8125 -3 9 C-6.75 8.8125 -6.75 8.8125 -10 8 C-9.67 10.64 -9.34 13.28 -9 16 C-9.66 15.67 -10.32 15.34 -11 15 C-11.29382062 13.00854914 -11.57988001 11.01463094 -11.78125 9.01171875 C-12.00633563 6.94173487 -12.41708298 4.99857263 -13 3 C-11.35 2.67 -9.7 2.34 -8 2 C-7.67 2.99 -7.34 3.98 -7 5 C-4.55519921 4.81171228 -4.55519921 4.81171228 -2 4 C-0.63979849 2.03241727 -0.63979849 2.03241727 0 0 Z " fill="#191919" transform="translate(201,45)"/>
<path d="M0 0 C2.1640625 0.0234375 2.1640625 0.0234375 4.625 0.375 C5.85089844 0.54128906 5.85089844 0.54128906 7.1015625 0.7109375 C7.72804688 0.80632812 8.35453125 0.90171875 9 1 C8.25 8.625 8.25 8.625 6 12 C5.29925156 8.846632 5 6.27275026 5 3 C3.68 3 2.36 3 1 3 C1.33 4.98 1.66 6.96 2 9 C1.01 9 0.02 9 -1 9 C-1.66 8.34 -2.32 7.68 -3 7 C-2.67028521 3.70285207 -2.3773161 2.3773161 0 0 Z " fill="#171717" transform="translate(86,268)"/>
<path d="M0 0 C4.55453462 0.51560769 6.06764606 2.20740448 9.3125 5.375 C9.3125 5.705 9.3125 6.035 9.3125 6.375 C5.0225 6.375 0.7325 6.375 -3.6875 6.375 C-3.6875 0.51453488 -3.6875 0.51453488 0 0 Z " fill="#E8E8E8" transform="translate(130.6875,9.625)"/>
<path d="M0 0 C2.31 0 4.62 0 7 0 C7.66 2.64 8.32 5.28 9 8 C6.69 9.32 4.38 10.64 2 12 C1.67 10.35 1.34 8.7 1 7 C1.99 6.67 2.98 6.34 4 6 C4.33 5.01 4.66 4.02 5 3 C3.35 3.33 1.7 3.66 0 4 C0 2.68 0 1.36 0 0 Z " fill="#DDDDDD" transform="translate(207,66)"/>
<path d="M0 0 C1.60433809 0.47859241 3.20846416 0.95789558 4.8125 1.4375 C6.15248047 1.83775391 6.15248047 1.83775391 7.51953125 2.24609375 C9.35473055 2.80387873 11.18033726 3.39344575 13 4 C12.67 4.99 12.34 5.98 12 7 C8.7 6.01 5.4 5.02 2 4 C1.67 5.65 1.34 7.3 1 9 C2.32 9.33 3.64 9.66 5 10 C0.25 10.125 0.25 10.125 -2 9 C-1.34 6.03 -0.68 3.06 0 0 Z " fill="#1D1D1D" transform="translate(163,20)"/>
<path d="M0 0 C0.99 0.66 1.98 1.32 3 2 C2.34 2.66 1.68 3.32 1 4 C1 5.32 1 6.64 1 8 C4.24208567 7.64950425 5.61527704 7.43778819 7.8125 4.9375 C8.204375 4.298125 8.59625 3.65875 9 3 C9.33 4.65 9.66 6.3 10 8 C7.58330297 10.23079726 6.24984673 10.96940652 2.9375 11.375 C0 11 0 11 -1.8125 9.875 C-3.42228269 7.33323785 -3.67109009 4.9601892 -4 2 C-2.68 1.34 -1.36 0.68 0 0 Z " fill="#1D1D1D" transform="translate(95,29)"/>
<path d="M0 0 C2.86724686 0.57344937 3.8614515 0.8614515 6 3 C6 3.99 6 4.98 6 6 C5.34 6 4.68 6 4 6 C3.814375 7.2065625 3.814375 7.2065625 3.625 8.4375 C3.41875 9.283125 3.2125 10.12875 3 11 C2.01 11.495 2.01 11.495 1 12 C0.34 11.34 -0.32 10.68 -1 10 C-0.01 8.35 0.98 6.7 2 5 C-0.475 6.485 -0.475 6.485 -3 8 C-2.45276317 4.62537285 -1.9451 2.91765 0 0 Z " fill="#626262" transform="translate(228,96)"/>
<path d="M0 0 C3.3 0 6.6 0 10 0 C10 1.32 10 2.64 10 4 C8.68 4 7.36 4 6 4 C6 5.32 6 6.64 6 8 C4.02 8 2.04 8 0 8 C0 5.36 0 2.72 0 0 Z " fill="#B3B3B3" transform="translate(113,165)"/>
<path d="M0 0 C6.09411765 2.14117647 6.09411765 2.14117647 8 5 C7.6875 7.6875 7.6875 7.6875 7 10 C5.68 10.33 4.36 10.66 3 11 C3 9.02 3 7.04 3 5 C1.02 5 -0.96 5 -3 5 C-2.01 3.35 -1.02 1.7 0 0 Z " fill="#D0D0D0" transform="translate(47,61)"/>
<path d="M0 0 C0.24954005 1.43410368 0.47392642 2.87260072 0.6875 4.3125 C0.81511719 5.11300781 0.94273438 5.91351563 1.07421875 6.73828125 C1 9 1 9 -0.3125 10.8125 C-2 12 -2 12 -4.6875 11.6875 C-5.450625 11.460625 -6.21375 11.23375 -7 11 C-7 10.34 -7 9.68 -7 9 C-6.01 8.34 -5.02 7.68 -4 7 C-4 5.68 -4 4.36 -4 3 C-4.66 2.34 -5.32 1.68 -6 1 C-3.92446352 0.4465236 -2.15634036 0 0 0 Z " fill="#DADADA" transform="translate(116,20)"/>
<path d="M0 0 C1.32 0 2.64 0 4 0 C4 1.32 4 2.64 4 4 C2.02 4.99 0.04 5.98 -2 7 C-2 7.66 -2 8.32 -2 9 C-0.68 9.33 0.64 9.66 2 10 C2 10.66 2 11.32 2 12 C-0.375 12.125 -0.375 12.125 -3 12 C-3.66 11.34 -4.32 10.68 -5 10 C-5 9.01 -5 8.02 -5 7 C-5.66 7 -6.32 7 -7 7 C-7 6.34 -7 5.68 -7 5 C-6.401875 4.9175 -5.80375 4.835 -5.1875 4.75 C-2.82462068 4.17384762 -2.82462068 4.17384762 -1.5 1.9375 C-1.005 1.298125 -0.51 0.65875 0 0 Z " fill="#858585" transform="translate(150,272)"/>
<path d="M0 0 C0.33 0.66 0.66 1.32 1 2 C3.52733235 2.65555119 3.52733235 2.65555119 6 3 C6 4.98 6 6.96 6 9 C4 8 4 8 3 5 C1.12119128 5.04768403 1.12119128 5.04768403 -1 6 C-2.36176581 7.98075027 -3.69593116 9.98079663 -5 12 C-5.99 12.33 -6.98 12.66 -8 13 C-6.68203796 8.38713287 -4.86611786 4.85134588 -2 1 C-1.34 0.67 -0.68 0.34 0 0 Z " fill="#0D0D0D" transform="translate(44,63)"/>
<path d="M0 0 C3.04386724 -0.08226668 5.07175348 0.02391783 8 1 C8 1.99 8 2.98 8 4 C7.34 4 6.68 4 6 4 C6 5.65 6 7.3 6 9 C4.02 9 2.04 9 0 9 C0 6.03 0 3.06 0 0 Z " fill="#929292" transform="translate(113,144)"/>
<path d="M0 0 C2.31 0.33 4.62 0.66 7 1 C7 4.63 7 8.26 7 12 C6.01 12 5.02 12 4 12 C4 10.02 4 8.04 4 6 C2.68 5.67 1.36 5.34 0 5 C0 3.33333333 0 1.66666667 0 0 Z " fill="#575757" transform="translate(119,272)"/>
<path d="M0 0 C1.98 0 3.96 0 6 0 C6 1.32 6 2.64 6 4 C3.69 4 1.38 4 -1 4 C-0.67 2.68 -0.34 1.36 0 0 Z M-1 4 C-1 5.65 -1 7.3 -1 9 C-2.98 9 -4.96 9 -7 9 C-7 7.68 -7 6.36 -7 5 C-2.125 4 -2.125 4 -1 4 Z " fill="#AAAAAA" transform="translate(155,175)"/>
<path d="M0 0 C0.66 0.33 1.32 0.66 2 1 C1.01 1.721875 0.02 2.44375 -1 3.1875 C-3.24296058 5.06903565 -3.91255478 5.64147461 -4.625 8.5625 C-3.82938015 11.66541743 -2.41617145 12.96135534 0 15 C-2.3431213 14.74438677 -4.67843403 14.40729228 -7 14 C-8.51200062 10.97599876 -8.5817049 9.36096166 -8 6 C-5.5601304 3.64021364 -2.86720977 1.80480615 0 0 Z " fill="#1B1B1B" transform="translate(228,124)"/>
<path d="M0 0 C1.32 0 2.64 0 4 0 C4 0.66 4 1.32 4 2 C3.34 2 2.68 2 2 2 C2.01160156 2.69867187 2.02320313 3.39734375 2.03515625 4.1171875 C2.04869141 5.48230469 2.04869141 5.48230469 2.0625 6.875 C2.07410156 7.77992187 2.08570313 8.68484375 2.09765625 9.6171875 C2 12 2 12 1 14 C-0.9375 13.1875 -0.9375 13.1875 -3 12 C-3.33 11.01 -3.66 10.02 -4 9 C-3.01 9 -2.02 9 -1 9 C-0.67 6.03 -0.34 3.06 0 0 Z " fill="#0B0B0B" transform="translate(135,17)"/>
<path d="M0 0 C0.66 0.66 1.32 1.32 2 2 C1.67 2.33 1.34 2.66 1 3 C0.92851801 4.35243917 0.91600546 5.70834367 0.9375 7.0625 C0.958125 8.361875 0.97875 9.66125 1 11 C-3.875 10.125 -3.875 10.125 -5 9 C-5.375 6.6875 -5.375 6.6875 -5 4 C-2.5 1.6875 -2.5 1.6875 0 0 Z " fill="#DFDFDF" transform="translate(228,126)"/>
<path d="M0 0 C1.98 0 3.96 0 6 0 C6 2.64 6 5.28 6 8 C4.02 8 2.04 8 0 8 C0 5.36 0 2.72 0 0 Z " fill="#DEDEDE" transform="translate(137,19)"/>
<path d="M0 0 C2.71435596 0.93305986 3.78043163 1.62673377 5.25 4.125 C5.4975 4.74375 5.745 5.3625 6 6 C3 8 3 8 0.9375 7.75 C-1 7 -1 7 -3 5 C-2.75 2.9375 -2.75 2.9375 -2 1 C-1.34 0.67 -0.68 0.34 0 0 Z " fill="#DDDDDD" transform="translate(70,39)"/>
<path d="M0 0 C3.3 0 6.6 0 10 0 C10 0.99 10 1.98 10 3 C8.02 3 6.04 3 4 3 C4 4.65 4 6.3 4 8 C2.68 8 1.36 8 0 8 C0 5.36 0 2.72 0 0 Z " fill="#BBBBBB" transform="translate(143,155)"/>
<path d="M0 0 C0.99 0 1.98 0 3 0 C3 1.98 3 3.96 3 6 C3.99 6 4.98 6 6 6 C5.67 7.32 5.34 8.64 5 10 C3.0625 10.5625 3.0625 10.5625 1 11 C0 10 0 10 -0.09765625 7.71484375 C-0.08605469 6.79832031 -0.07445312 5.88179688 -0.0625 4.9375 C-0.05347656 4.01839844 -0.04445312 3.09929687 -0.03515625 2.15234375 C-0.02355469 1.44207031 -0.01195312 0.73179688 0 0 Z " fill="#181818" transform="translate(34,104)"/>
<path d="M0 0 C0 1.32 0 2.64 0 4 C-2.70879335 5.35439668 -5.00933268 5.06501451 -8 5 C-8.33 3.68 -8.66 2.36 -9 1 C-6.04335481 -0.4783226 -3.25770263 -0.06032783 0 0 Z " fill="#141414" transform="translate(126,123)"/>
<path d="M0 0 C6.625 -0.25 6.625 -0.25 10 2 C10 2.66 10 3.32 10 4 C5.58937864 5.0257259 3.07369424 5.03684712 -1 3 C-0.67 2.01 -0.34 1.02 0 0 Z " fill="#101010" transform="translate(139,123)"/>
<path d="M0 0 C2.00720923 0.28674418 4.0085944 0.61866701 6 1 C6 1.33 6 1.66 6 2 C4.35 2 2.7 2 1 2 C2.3089572 5.12197478 2.3089572 5.12197478 5 7 C5 7.99 5 8.98 5 10 C0.25 9.25 0.25 9.25 -2 7 C-1.43181818 1.43181818 -1.43181818 1.43181818 0 0 Z " fill="#2A2A2A" transform="translate(25,75)"/>
<path d="M0 0 C2.12560437 0.30836232 4.25047065 0.62181614 6.375 0.9375 C8.15003906 1.19853516 8.15003906 1.19853516 9.9609375 1.46484375 C13 2 13 2 15 3 C15 3.66 15 4.32 15 5 C9.30948637 4.4618629 3.65134116 3.8599867 -2 3 C-1.34 2.01 -0.68 1.02 0 0 Z " fill="#1D1D1D" transform="translate(148,17)"/>
<path d="M0 0 C2.31 0 4.62 0 7 0 C8.2077558 3.62326739 7.54311128 4.64146369 6 8 C5.34 7.67 4.68 7.34 4 7 C4 6.34 4 5.68 4 5 C2.68 4.34 1.36 3.68 0 3 C0 2.01 0 1.02 0 0 Z " fill="#E0E0E0" transform="translate(26,77)"/>
<path d="M0 0 C0.99 0 1.98 0 3 0 C3 1.32 3 2.64 3 4 C1.68 4 0.36 4 -1 4 C-1 5.32 -1 6.64 -1 8 C-2.98 8 -4.96 8 -7 8 C-7 6.35 -7 4.7 -7 3 C-4.69 3 -2.38 3 0 3 C0 2.01 0 1.02 0 0 Z " fill="#A3A3A3" transform="translate(120,170)"/>
<path d="M0 0 C1.67542976 0.28604898 3.34385343 0.61781233 5 1 C5 2.65 5 4.3 5 6 C3.34385343 6.38218767 1.67542976 6.71395102 0 7 C-1 6 -1 6 -1.125 3.5 C-1 1 -1 1 0 0 Z " fill="#1A1A1A" transform="translate(230,149)"/>
<path d="M0 0 C1.32 0.66 2.64 1.32 4 2 C4 3.65 4 5.3 4 7 C2.35 7 0.7 7 -1 7 C-1.66 5.35 -2.32 3.7 -3 2 C-2.01 1.34 -1.02 0.68 0 0 Z " fill="#6A6A6A" transform="translate(217,58)"/>
<path d="M0 0 C-1.375 1.5 -1.375 1.5 -3 3 C-3.66 3 -4.32 3 -5 3 C-5 4.32 -5 5.64 -5 7 C-4.34 7.66 -3.68 8.32 -3 9 C-4.65 9 -6.3 9 -8 9 C-9.125 3.25 -9.125 3.25 -8 1 C-3.6 -1.2 -3.6 -1.2 0 0 Z " fill="#0F0F0F" transform="translate(96,24)"/>
<path d="M0 0 C1.65 0.33 3.3 0.66 5 1 C5 2.65 5 4.3 5 6 C3.125 6.625 3.125 6.625 1 7 C0.34 6.34 -0.32 5.68 -1 5 C-0.625 2.375 -0.625 2.375 0 0 Z " fill="#141414" transform="translate(36,149)"/>
<path d="M0 0 C2.42289685 0.41774084 3.70879065 0.69612938 5.4375 2.5 C7.48513623 4.46573078 9.23747349 4.62668561 12 5 C12 5.33 12 5.66 12 6 C10.37536158 6.05395478 8.75021459 6.09277195 7.125 6.125 C6.22007813 6.14820313 5.31515625 6.17140625 4.3828125 6.1953125 C2 6 2 6 0 4 C0 2.68 0 1.36 0 0 Z " fill="#D8D8D8" transform="translate(35,122)"/>
<path d="M0 0 C0.99 0.33 1.98 0.66 3 1 C3.66 4.63 4.32 8.26 5 12 C4.34 12 3.68 12 3 12 C2.67 12.99 2.34 13.98 2 15 C1.66223316 13.2508503 1.32996329 11.50063855 1 9.75 C0.814375 8.77546875 0.62875 7.8009375 0.4375 6.796875 C0 4 0 4 0 0 Z " fill="#191919" transform="translate(235,92)"/>
<path d="M0 0 C0.66 0.99 1.32 1.98 2 3 C4.05003955 4.19232613 4.05003955 4.19232613 6 5 C5.34 6.32 4.68 7.64 4 9 C3.34 9 2.68 9 2 9 C2 8.01 2 7.02 2 6 C0.35 6 -1.3 6 -3 6 C-1.125 1.125 -1.125 1.125 0 0 Z " fill="#0A0A0A" transform="translate(33,83)"/>
<path d="M0 0 C1.98 0 3.96 0 6 0 C6 0.66 6 1.32 6 2 C5.01 2 4.02 2 3 2 C3 5.63 3 9.26 3 13 C2.34 13 1.68 13 1 13 C0.67 8.71 0.34 4.42 0 0 Z " fill="#000000" transform="translate(130,271)"/>
<path d="M0 0 C0.94875 0.04125 1.8975 0.0825 2.875 0.125 C3.535 1.445 4.195 2.765 4.875 4.125 C1.10812136 4.125 -0.03690305 3.88962683 -3.125 2.125 C-3.455 3.115 -3.785 4.105 -4.125 5.125 C-4.785 5.785 -5.445 6.445 -6.125 7.125 C-5.03177966 0.20127119 -5.03177966 0.20127119 0 0 Z " fill="#212121" transform="translate(38.125,119.875)"/>
<path d="M0 0 C1.32 0.33 2.64 0.66 4 1 C5.09658936 4.28976808 4.79953138 5.71303767 4 9 C2.68 9 1.36 9 0 9 C0 6.03 0 3.06 0 0 Z " fill="#969696" transform="translate(143,144)"/>
<path d="M0 0 C0.33 1.65 0.66 3.3 1 5 C0.01 5.33 -0.98 5.66 -2 6 C-2 5.34 -2 4.68 -2 4 C-3.65 3.67 -5.3 3.34 -7 3 C-6.67 2.01 -6.34 1.02 -6 0 C-3.50907189 -1.24546405 -2.58919267 -0.7767578 0 0 Z " fill="#D7D7D7" transform="translate(154,278)"/>
<path d="M0 0 C1.32 0.33 2.64 0.66 4 1 C4 3.97 4 6.94 4 10 C3.01 10 2.02 10 1 10 C0 2.25 0 2.25 0 0 Z " fill="#818181" transform="translate(119,153)"/>
<path d="M0 0 C2.125 0.9375 2.125 0.9375 4 2 C2.576875 2.309375 2.576875 2.309375 1.125 2.625 C-2.2895788 3.69520182 -2.2895788 3.69520182 -3.25 7.0625 C-3.62125 8.5165625 -3.62125 8.5165625 -4 10 C-4.99 10.495 -4.99 10.495 -6 11 C-6.49046322 5.60490463 -6.49046322 5.60490463 -4.125 2.6875 C-2 1 -2 1 0 0 Z " fill="#1E1E1E" transform="translate(21,128)"/>
<path d="M0 0 C-0.639375 0.103125 -1.27875 0.20625 -1.9375 0.3125 C-2.618125 0.539375 -3.29875 0.76625 -4 1 C-4.33 1.99 -4.66 2.98 -5 4 C-5.33 3.67 -5.66 3.34 -6 3 C-7.34747084 2.76924918 -8.70377565 2.58846937 -10.0625 2.4375 C-11.361875 2.293125 -12.66125 2.14875 -14 2 C-14 1.34 -14 0.68 -14 0 C-9.02936879 -0.91297308 -4.97063121 -0.91297308 0 0 Z " fill="#232323" transform="translate(154,271)"/>
<path d="M0 0 C0.99 0 1.98 0 3 0 C3 0.99 3 1.98 3 3 C3.66 3.33 4.32 3.66 5 4 C4.67 5.65 4.34 7.3 4 9 C2.68 9 1.36 9 0 9 C0 6.03 0 3.06 0 0 Z " fill="#9A9A9A" transform="translate(143,175)"/>
<path d="M0 0 C0.33 0.66 0.66 1.32 1 2 C1.928125 1.773125 2.85625 1.54625 3.8125 1.3125 C7 1 7 1 8.9375 2.1875 C10 4 10 4 9.6875 6.1875 C9.3471875 7.0846875 9.3471875 7.0846875 9 8 C7.68 8.33 6.36 8.66 5 9 C5.66 7.68 6.32 6.36 7 5 C4.69 4.34 2.38 3.68 0 3 C0 2.01 0 1.02 0 0 Z " fill="#2D2D2D" transform="translate(240,136)"/>
<path d="M0 0 C0.33 0 0.66 0 1 0 C1.9765625 6.0546875 1.9765625 6.0546875 2 8 C1.34 8.66 0.68 9.32 0 10 C-2.0625 9.8125 -2.0625 9.8125 -4 9 C-4.33 8.01 -4.66 7.02 -5 6 C-4.360625 5.7525 -3.72125 5.505 -3.0625 5.25 C-0.81258459 4.18437567 -0.81258459 4.18437567 -0.25 1.875 C-0.1675 1.25625 -0.085 0.6375 0 0 Z " fill="#CACACA" transform="translate(221,61)"/>
<path d="M0 0 C0.33 0.66 0.66 1.32 1 2 C-0.98 4.97 -2.96 7.94 -5 11 C-5.66 10.67 -6.32 10.34 -7 10 C-6.52727227 5.74545047 -4.03562624 3.80795427 -1 1 C-0.67 0.67 -0.34 0.34 0 0 Z " fill="#181818" transform="translate(185,39)"/>
<path d="M0 0 C2.375 -0.125 2.375 -0.125 5 0 C5.66 0.66 6.32 1.32 7 2 C6.625 4.625 6.625 4.625 6 7 C5.34 6.67 4.68 6.34 4 6 C4 5.34 4 4.68 4 4 C2.68 3.67 1.36 3.34 0 3 C0 2.01 0 1.02 0 0 Z " fill="#DEDEDE" transform="translate(69,265)"/>
<path d="M0 0 C1.98 0.495 1.98 0.495 4 1 C4.625 3.375 4.625 3.375 5 6 C4.34 6.66 3.68 7.32 3 8 C0.875 7.625 0.875 7.625 -1 7 C-0.835 6.21625 -0.67 5.4325 -0.5 4.625 C0.0623707 2.11791961 0.0623707 2.11791961 0 0 Z " fill="#E4E4E4" transform="translate(208,250)"/>
<path d="M0 0 C1.32 0 2.64 0 4 0 C4.98120464 3.05263664 4.98120464 4.94736336 4 8 C2.68 8 1.36 8 0 8 C0 5.36 0 2.72 0 0 Z " fill="#9F9F9F" transform="translate(143,165)"/>
<path d="M0 0 C0.33 0.66 0.66 1.32 1 2 C-2.63 2.66 -6.26 3.32 -10 4 C-10 3.01 -10 2.02 -10 1 C-3.44680851 -1.53191489 -3.44680851 -1.53191489 0 0 Z " fill="#2A2A2A" transform="translate(105,21)"/>
<path d="M0 0 C2.9555377 2.75170751 5.11563315 5.41970299 7 9 C7 9.66 7 10.32 7 11 C3.22840309 9.74280103 2.16687282 8.2876691 0 5 C-0.25 2.1875 -0.25 2.1875 0 0 Z " fill="#0A0A0A" transform="translate(199,255)"/>
<path d="M0 0 C2.4375 0.1875 2.4375 0.1875 5 1 C6.3125 3.0625 6.3125 3.0625 7 5 C5.68 4.67 4.36 4.34 3 4 C3 3.34 3 2.68 3 2 C2.38125 2.495 1.7625 2.99 1.125 3.5 C-1 5 -1 5 -3 5 C-1.125 1.125 -1.125 1.125 0 0 Z " fill="#E3E3E3" transform="translate(131,104)"/>
<path d="M0 0 C2.79998966 0.50256225 3.69857595 1.24096435 5.4375 3.4375 C2.91274538 4.69987731 1.12549534 4.53606404 -1.6875 4.5 C-2.59757812 4.49097656 -3.50765625 4.48195313 -4.4453125 4.47265625 C-5.14398438 4.46105469 -5.84265625 4.44945312 -6.5625 4.4375 C-3.292687 0.56216607 -3.292687 0.56216607 0 0 Z " fill="#2D2D2D" transform="translate(130.5625,6.5625)"/>
<path d="M0 0 C1.98 0 3.96 0 6 0 C6 0.33 6 0.66 6 1 C4.35 1 2.7 1 1 1 C1 2.32 1 3.64 1 5 C2.65 5 4.3 5 6 5 C6 5.33 6 5.66 6 6 C4.35 6 2.7 6 1 6 C1 6.99 1 7.98 1 9 C0.34 9 -0.32 9 -1 9 C-1 7.68 -1 6.36 -1 5 C-1.99 4.67 -2.98 4.34 -4 4 C-2.68 4 -1.36 4 0 4 C0 2.68 0 1.36 0 0 Z " fill="#0E0E0E" transform="translate(147,169)"/>
<path d="M0 0 C0.99 0.33 1.98 0.66 3 1 C2.67 3.31 2.34 5.62 2 8 C0.68 8 -0.64 8 -2 8 C-1.34 7.67 -0.68 7.34 0 7 C-0.185625 6.030625 -0.37125 5.06125 -0.5625 4.0625 C-0.706875 3.051875 -0.85125 2.04125 -1 1 C-0.67 0.67 -0.34 0.34 0 0 Z " fill="#252525" transform="translate(229,130)"/>
<path d="M0 0 C1.32 0.66 2.64 1.32 4 2 C4 2.99 4 3.98 4 5 C2.35 5.33 0.7 5.66 -1 6 C-1.625 4.125 -1.625 4.125 -2 2 C-1.34 1.34 -0.68 0.68 0 0 Z " fill="#DBDBDB" transform="translate(155,27)"/>
<path d="M0 0 C1.32 0 2.64 0 4 0 C4.33 1.32 4.66 2.64 5 4 C6.32 4.33 7.64 4.66 9 5 C9 5.66 9 6.32 9 7 C6.625 7.125 6.625 7.125 4 7 C3.34 6.34 2.68 5.68 2 5 C2 4.01 2 3.02 2 2 C1.34 2 0.68 2 0 2 C0 1.34 0 0.68 0 0 Z " fill="#0A0A0A" transform="translate(143,277)"/>
<path d="M0 0 C0.33 0.66 0.66 1.32 1 2 C1.66 2 2.32 2 3 2 C2.125 6.75 2.125 6.75 1 9 C1.99 9.33 2.98 9.66 4 10 C2.35 9.67 0.7 9.34 -1 9 C-1.33 8.01 -1.66 7.02 -2 6 C-1.34 5.67 -0.68 5.34 0 5 C-0.2784375 4.0409375 -0.2784375 4.0409375 -0.5625 3.0625 C-0.7790625 2.0415625 -0.7790625 2.0415625 -1 1 C-0.67 0.67 -0.34 0.34 0 0 Z " fill="#080808" transform="translate(206,250)"/>
<path d="M0 0 C0.66 0.33 1.32 0.66 2 1 C2 1.66 2 2.32 2 3 C-2.95 5.475 -2.95 5.475 -8 8 C-8.66 7.34 -9.32 6.68 -10 6 C-8.3811004 4.96951963 -6.75467511 3.95085322 -5.125 2.9375 C-4.22007812 2.36902344 -3.31515625 1.80054688 -2.3828125 1.21484375 C-1.20332031 0.61349609 -1.20332031 0.61349609 0 0 Z " fill="#1F1F1F" transform="translate(204,250)"/>
<path d="M0 0 C1.2065625 0.0309375 1.2065625 0.0309375 2.4375 0.0625 C2.1075 1.7125 1.7775 3.3625 1.4375 5.0625 C1.1075 4.4025 0.7775 3.7425 0.4375 3.0625 C-0.5525 3.0625 -1.5425 3.0625 -2.5625 3.0625 C-2.8925 3.7225 -3.2225 4.3825 -3.5625 5.0625 C-4.2225 5.0625 -4.8825 5.0625 -5.5625 5.0625 C-3.15007962 0.07683121 -3.15007962 0.07683121 0 0 Z " fill="#181818" transform="translate(233.5625,125.9375)"/>
<path d="M0 0 C1.32 0.66 2.64 1.32 4 2 C4 3.32 4 4.64 4 6 C2.35 5.67 0.7 5.34 -1 5 C-0.67 3.35 -0.34 1.7 0 0 Z " fill="#E4E4E4" transform="translate(35,132)"/>
<path d="M0 0 C0.66 0.66 1.32 1.32 2 2 C3.31747324 2.69748583 4.64914193 3.36959957 6 4 C4.35 4 2.7 4 1 4 C0.67 4.66 0.34 5.32 0 6 C0 5.34 0 4.68 0 4 C-2.97 3.505 -2.97 3.505 -6 3 C-5.67 2.34 -5.34 1.68 -5 1 C-2.5625 0.25 -2.5625 0.25 0 0 Z " fill="#0A0A0A" transform="translate(214,62)"/>
<path d="M0 0 C3 1 3 1 6 3 C4.35 3 2.7 3 1 3 C1 4.32 1 5.64 1 7 C0.01 7 -0.98 7 -2 7 C-1.125 1.125 -1.125 1.125 0 0 Z " fill="#303030" transform="translate(206,63)"/>
<path d="M0 0 C1.32 0 2.64 0 4 0 C3.67 0.99 3.34 1.98 3 3 C2.34 3 1.68 3 1 3 C1.33 3.99 1.66 4.98 2 6 C1.34 6.66 0.68 7.32 0 8 C-0.66 6.02 -1.32 4.04 -2 2 C-1.34 1.34 -0.68 0.68 0 0 Z " fill="#CBCBCB" transform="translate(203,253)"/>
<path d="M0 0 C0.66 0 1.32 0 2 0 C2 2.97 2 5.94 2 9 C1.01 9 0.02 9 -1 9 C-1.33 7.35 -1.66 5.7 -2 4 C-1.34 4 -0.68 4 0 4 C0 2.68 0 1.36 0 0 Z " fill="#9B9B9B" transform="translate(121,144)"/>
<path d="M0 0 C0.556875 0.66 1.11375 1.32 1.6875 2 C3.84062308 4.25492211 3.84062308 4.25492211 6.75 4.25 C7.4925 4.1675 8.235 4.085 9 4 C9 5.65 9 7.3 9 9 C8.67 8.34 8.34 7.68 8 7 C7.030625 6.855625 6.06125 6.71125 5.0625 6.5625 C4.051875 6.376875 3.04125 6.19125 2 6 C0 3 0 3 0 0 Z " fill="#313131" transform="translate(150,28)"/>
<path d="M0 0 C1.65 0 3.3 0 5 0 C5.33 1.32 5.66 2.64 6 4 C4.02 4 2.04 4 0 4 C0 2.68 0 1.36 0 0 Z " fill="#BABABA" transform="translate(148,144)"/>
<path d="M0 0 C0.33 0.66 0.66 1.32 1 2 C1.66 2 2.32 2 3 2 C2.67 4.97 2.34 7.94 2 11 C1.01 10.34 0.02 9.68 -1 9 C-0.67 6.03 -0.34 3.06 0 0 Z " fill="#202020" transform="translate(26,101)"/>
<path d="M0 0 C0 2.64 0 5.28 0 8 C-0.66 8 -1.32 8 -2 8 C-2.33 6.35 -2.66 4.7 -3 3 C-3.99 2.67 -4.98 2.34 -6 2 C-1.125 0 -1.125 0 0 0 Z " fill="#252525" transform="translate(157,275)"/>
<path d="M0 0 C1.32 0.66 2.64 1.32 4 2 C3.67 3.65 3.34 5.3 3 7 C2.01 7 1.02 7 0 7 C0.33 5.35 0.66 3.7 1 2 C0.34 1.67 -0.32 1.34 -1 1 C-0.67 0.67 -0.34 0.34 0 0 Z " fill="#232323" transform="translate(109,21)"/>
<path d="M0 0 C2 1 2 1 3.125 4.0625 C3.41375 5.031875 3.7025 6.00125 4 7 C3.01 7 2.02 7 1 7 C0.34 6.34 -0.32 5.68 -1 5 C-0.625 2.375 -0.625 2.375 0 0 Z " fill="#212121" transform="translate(48,250)"/>
<path d="M0 0 C3.2682346 3.14718888 6.1310659 6.49352499 9 10 C4.5969913 8.65463623 2.528436 6.83947688 0 3 C0 2.01 0 1.02 0 0 Z " fill="#2E2E2E" transform="translate(146,229)"/>
<path d="M0 0 C1.65 0 3.3 0 5 0 C5 1.32 5 2.64 5 4 C3.35 4 1.7 4 0 4 C0 2.68 0 1.36 0 0 Z " fill="#CFCFCF" transform="translate(106,180)"/>
<path d="M0 0 C1.65 0 3.3 0 5 0 C5 1.32 5 2.64 5 4 C3.35 4 1.7 4 0 4 C0 2.68 0 1.36 0 0 Z " fill="#C5C5C5" transform="translate(156,180)"/>
<path d="M0 0 C1.65 0 3.3 0 5 0 C5 1.32 5 2.64 5 4 C3.35 4 1.7 4 0 4 C0 2.68 0 1.36 0 0 Z " fill="#C5C5C5" transform="translate(156,144)"/>
<path d="M0 0 C1.65 0 3.3 0 5 0 C5 1.32 5 2.64 5 4 C3.35 4 1.7 4 0 4 C0 2.68 0 1.36 0 0 Z " fill="#C5C5C5" transform="translate(113,144)"/>
<path d="M0 0 C0.66 0.33 1.32 0.66 2 1 C2.125 6.75 2.125 6.75 1 9 C0.34 9 -0.32 9 -1 9 C-0.67 6.03 -0.34 3.06 0 0 Z " fill="#C9C9C9" transform="translate(237,127)"/>
<path d="M0 0 C0.66 0.33 1.32 0.66 2 1 C-0.36292656 3.52588702 -1.66462511 4.88820837 -5 6 C-4.75 4.125 -4.75 4.125 -4 2 C-2.0625 0.6875 -2.0625 0.6875 0 0 Z " fill="#090909" transform="translate(217,82)"/>
<path d="M0 0 C5.75 -0.125 5.75 -0.125 8 1 C8 1.66 8 2.32 8 3 C5.36 2.67 2.72 2.34 0 2 C0 1.34 0 0.68 0 0 Z " fill="#0E0E0E" transform="translate(155,19)"/>
<path d="M0 0 C0.33 0.66 0.66 1.32 1 2 C1.66 2.33 2.32 2.66 3 3 C2.34 4.98 1.68 6.96 1 9 C0.34 8.67 -0.32 8.34 -1 8 C-0.67 5.36 -0.34 2.72 0 0 Z " fill="#2B2B2B" transform="translate(92,271)"/>
<path d="M0 0 C0.99 0.33 1.98 0.66 3 1 C3 2.32 3 3.64 3 5 C2.01 5.33 1.02 5.66 0 6 C-0.66 4.35 -1.32 2.7 -2 1 C-1.34 0.67 -0.68 0.34 0 0 Z " fill="#888888" transform="translate(197,257)"/>
<path d="M0 0 C4.67692308 1.47692308 4.67692308 1.47692308 6.3125 4.125 C6.539375 4.74375 6.76625 5.3625 7 6 C6.01 6 5.02 6 4 6 C4 5.34 4 4.68 4 4 C2.68 3.34 1.36 2.68 0 2 C0 1.34 0 0.68 0 0 Z " fill="#1C1C1C" transform="translate(96,259)"/>
<path d="M0 0 C-0.33 1.32 -0.66 2.64 -1 4 C-2.32 4.33 -3.64 4.66 -5 5 C-5.33 4.01 -5.66 3.02 -6 2 C-2.25 0 -2.25 0 0 0 Z " fill="#151515" transform="translate(170,35)"/>
<path d="M0 0 C0.66 0.99 1.32 1.98 2 3 C2.99 3.33 3.98 3.66 5 4 C5 4.66 5 5.32 5 6 C3.35 5.67 1.7 5.34 0 5 C-0.5625 3.0625 -0.5625 3.0625 -1 1 C-0.67 0.67 -0.34 0.34 0 0 Z " fill="#191919" transform="translate(68,265)"/>
<path d="M0 0 C0.66 0.33 1.32 0.66 2 1 C1.67 2.65 1.34 4.3 1 6 C-0.65 5.67 -2.3 5.34 -4 5 C-3.01 4.34 -2.02 3.68 -1 3 C-0.67 2.01 -0.34 1.02 0 0 Z " fill="#111111" transform="translate(55,253)"/>
<path d="M0 0 C0.66 0 1.32 0 2 0 C1.625 2.4375 1.625 2.4375 1 5 C0.01 5.495 0.01 5.495 -1 6 C-1.66 5.34 -2.32 4.68 -3 4 C-1.625 2 -1.625 2 0 0 Z " fill="#C3C3C3" transform="translate(230,102)"/>
<path d="M0 0 C0.33 0 0.66 0 1 0 C0.67 2.64 0.34 5.28 0 8 C-0.66 8 -1.32 8 -2 8 C-1.125 1.125 -1.125 1.125 0 0 Z " fill="#060606" transform="translate(29,95)"/>
<path d="M0 0 C0.33 1.32 0.66 2.64 1 4 C-0.9375 6.75 -0.9375 6.75 -3 9 C-3.66 8.67 -4.32 8.34 -5 8 C-3.35 5.36 -1.7 2.72 0 0 Z " fill="#2B2B2B" transform="translate(201,45)"/>
<path d="M0 0 C1.98 0 3.96 0 6 0 C6 0.66 6 1.32 6 2 C3.69 2.33 1.38 2.66 -1 3 C-0.67 2.01 -0.34 1.02 0 0 Z " fill="#0C0C0C" transform="translate(105,19)"/>
</svg>
